<?xml version="1.0" encoding="UTF-8" standalone="no"?>
<!-- Created with Inkscape (http://www.inkscape.org/) -->

<svg
   width="160.33746mm"
   height="115.9163mm"
   viewBox="0 0 160.33746 115.9163"
   version="1.1"
   id="svg1"
   xml:space="preserve"
   xmlns:inkscape="http://www.inkscape.org/namespaces/inkscape"
   xmlns:sodipodi="http://sodipodi.sourceforge.net/DTD/sodipodi-0.dtd"
   xmlns="http://www.w3.org/2000/svg"
   xmlns:svg="http://www.w3.org/2000/svg"><sodipodi:namedview
     id="namedview1"
     pagecolor="#ffffff"
     bordercolor="#000000"
     borderopacity="0.25"
     inkscape:showpageshadow="2"
     inkscape:pageopacity="0.0"
     inkscape:pagecheckerboard="0"
     inkscape:deskcolor="#d1d1d1"
     inkscape:document-units="mm"><inkscape:page
       x="-3.1389699e-22"
       y="0"
       width="160.33746"
       height="115.9163"
       id="page2"
       margin="0"
       bleed="0" /></sodipodi:namedview><defs
     id="defs1" /><g
     inkscape:label="Capa 1"
     inkscape:groupmode="layer"
     id="layer1"
     transform="translate(-21.739635,-60.950338)"><path
       style="fill:#535328;stroke:none"
       d="m 66.718801,62.724341 -6.139108,10.05417 -2.493537,4.23333 2.236302,4.23333 -1.541157,2.91042 c -1.258487,-2.38832 -2.461236,-5.96227 -2.188735,-8.70757 0.149571,-1.50686 2.131277,-2.92702 0.276222,-4.3252 -1.347212,-1.01541 -3.265298,-0.008 -3.266053,1.65569 -4.73e-4,1.03838 0.870879,1.72182 1.1402,2.66951 0.509649,1.79337 0.480322,3.72309 0.975855,5.53257 0.390605,1.42633 1.341645,3.0335 1.428462,4.49792 0.0791,1.33425 -1.02996,2.73006 -1.446836,3.96875 -0.765315,2.27401 -1.049946,4.75641 -1.152449,7.14375 h -0.264583 c 0,-7.00577 1.385033,-13.0169 -1.917616,-19.57917 -0.926804,-1.84154 -2.091135,-3.94765 -3.903217,-5.02708 -0.870165,4.21812 -1.127251,8.28606 0.37993,12.43541 1.387248,3.81917 4.295527,7.18253 4.38257,11.37709 h -0.264584 c -0.951593,-6.44354 -6.044372,-12.5049 -12.435417,-14.02292 0.345011,4.22402 2.868135,8.08678 6.085417,10.72502 1.937513,1.5888 4.421143,2.64024 5.724677,4.8854 1.240053,2.13581 0.920553,4.543119 0.625323,6.879159 l -1.058333,-0.52916 -0.264583,-2.38125 c 1.610367,-0.53448 1.190241,-2.468779 -0.264584,-2.910419 0.379477,-1.65979 -0.766143,-2.89231 -2.38125,-2.11667 -0.679603,-1.60141 -1.893142,-1.45108 -3.175,-0.52916 -1.118454,-2.15875 -3.101315,-3.81372 -4.757191,-5.55625 -0.814251,-0.85686 -1.501306,-1.67514 -0.269892,-2.38125 -0.06112,-1.10628 -0.252825,-1.7073 -1.322917,-2.11667 0.64407,-1.58137 -0.382949,-2.07734 -1.852084,-1.85208 -0.612625,-1.93403 -3.104472,-0.2713 -4.497916,0.26458 l -0.715763,2.91042 0.715763,2.91041 2.38125,0.26459 c 0.355299,1.07051 1.075644,1.04599 2.116666,1.05833 1.03163,-2.11946 5.871747,2.99075 6.296512,4.49792 0.304305,1.07975 -0.604788,2.12824 -0.211095,3.43958 -1.491571,0.802979 -1.462007,2.285529 0.264584,2.645829 -0.576336,1.73475 0.557249,3.23225 2.38125,2.38125 0.718548,1.25212 1.591147,1.08092 2.910417,1.05834 l 0.264583,-1.32292 c 4.311781,1.78303 3.439583,6.05063 3.439583,10.05417 l -2.116666,-2.64583 h 0.79375 c 0,-0.88972 0.189402,-1.64142 -0.79375,-1.85209 0.263041,-1.43064 -0.339932,-2.49649 -1.852084,-1.85208 -0.543301,-1.41576 -1.828011,-1.40878 -2.38125,0 -3.166411,-1.28945 -3.585462,-4.69016 -5.241854,-7.40834 -2.63666,-4.326829 -7.221273,-9.000539 -12.48523,-9.789579 0.721561,5.35409 4.259105,10.075559 8.466667,13.256109 2.554867,1.93126 5.599097,3.28865 7.672917,5.79389 -2.231275,-1.06145 -3.878155,-3.01172 -6.085417,-4.13451 -5.586021,-2.84152 -11.525507,-2.28701 -17.197917,-0.0988 2.938307,3.74449 9.878052,4.41602 14.2875,4.22292 1.995403,-0.0874 4.103755,-0.66279 6.085213,-0.18965 2.470394,0.58988 2.234459,4.62479 5.027288,4.16881 0.775736,1.0747 1.739287,0.78203 2.38125,-0.26458 3.525538,2.03728 4.28482,6.07612 5.820833,9.525 -2.63183,-1.52129 -4.089574,-4.30709 -6.35,-6.27344 -4.283205,-3.72598 -9.034841,-4.83906 -14.552084,-4.83906 1.681547,3.89636 5.7729,6.67489 9.789584,7.73743 2.380469,0.62971 4.566424,0.47376 6.614584,2.05215 -3.716979,0 -9.455581,0.52052 -12.660804,-1.68365 -0.967236,-0.66515 -0.493808,-1.89503 -1.293926,-2.54233 -0.862057,-0.6974 -2.22022,-0.10247 -3.138865,-0.93706 -1.064677,-0.96727 -0.352036,-3.3367 -1.511351,-3.8973 -1.175937,-0.56864 -5.093279,-0.47629 -6.03887,0.52447 -0.682868,0.7227 -0.491,2.07033 -0.491602,2.97962 -1.204521,0.0292 -3.38533,1.29772 -1.692435,2.63849 0.737122,0.58379 2.39166,0.27193 3.279935,0.27193 0.938386,2.89856 5.776638,1.0194 7.9375,1.38233 1.680312,0.28221 3.716519,1.35904 5.291667,2.05725 -2.072203,0.84422 -4.908728,1.25481 -7.14375,0.70985 -1.302579,-0.31761 -2.211495,-1.65079 -3.69253,-1.07916 -2.001035,0.77233 -1.390094,4.02965 0.78293,3.92588 1.095157,-0.0523 1.668125,-1.09368 2.668698,-1.35599 1.842437,-0.48303 3.915349,0.15396 5.797152,-0.20783 2.37511,-0.45664 3.786987,-1.72816 6.35,-1.72816 v 0.26458 c -1.714961,0.65967 -2.837197,2.19474 -4.497916,2.91736 -1.133188,0.49307 -2.326859,0.0414 -3.439584,0.45506 -1.459663,0.54258 -3.347971,1.96933 -4.733715,2.76015 -1.640409,0.93618 -1.084689,3.40157 0.765985,3.61272 2.507543,0.28608 2.287765,-3.37244 3.967934,-4.60347 1.496505,-1.09647 3.820384,-0.79398 5.556046,-1.70224 l -3.119266,5.29065 -3.495317,4.23435 2.910416,0.26459 c 0.117548,1.48943 0.244077,3.08779 0.761085,4.49791 3.274302,8.93053 12.995279,2.71497 18.818083,7.9375 -3.317603,-1.07913 -6.092837,-1.05833 -9.525,-1.05833 1.350125,3.48457 6.179968,6.00852 9.789583,6.08542 l -3.96875,1.85208 v 0.26458 c 1.085742,0.73857 2.758359,1.53462 3.433253,2.69463 1.986979,3.41521 1.499226,6.60913 5.827164,8.54629 7.820413,3.50038 14.182993,-4.16819 21.695834,-2.77425 v 0.26458 c -3.28633,0.14147 -8.261479,1.89132 -9.789583,5.02709 3.782985,1.20964 7.796855,1.49059 11.641667,0.33828 3.987983,-1.19522 6.610449,-3.80103 10.847912,-2.45495 -2.878736,1.28241 -6.638415,2.63198 -8.558533,5.30208 -0.570662,0.79355 -1.381223,4.77557 0.64778,4.28865 1.00744,-0.24175 1.680598,-1.46026 2.37819,-2.13749 1.815005,-1.76201 5.953873,-5.96128 8.707572,-5.88779 2.78234,0.0743 6.57946,3.82528 8.46565,5.60198 0.71238,0.67103 1.61353,2.19227 2.65216,2.34165 1.99423,0.28682 1.30678,-3.36482 0.6737,-4.21354 -1.8603,-2.49389 -5.61606,-3.99886 -8.35193,-5.29554 4.25487,-1.20743 6.8073,1.39247 10.84792,2.53253 3.91187,1.10373 7.79292,0.66824 11.64166,-0.41586 v -0.52917 c -3.12028,-1.94313 -5.91877,-4.32104 -9.78958,-4.49792 v -0.26458 c 2.48882,-0.59089 4.75209,0.69821 7.14375,1.26045 1.8491,0.43468 3.72383,0.0631 5.55625,0.42729 2.96579,0.58946 5.59669,1.93798 8.73125,1.72816 3.51529,-0.2353 6.83853,-1.45525 9.50132,-3.80338 1.06675,-0.9407 1.75956,-2.25214 2.94451,-3.06108 3.38378,-2.31005 5.86418,-3.77195 7.2203,-7.92852 1.62327,-4.97541 -1.39249,-9.43486 -0.087,-14.02292 l -2.38125,-0.26458 c 0.40768,-1.17627 1.45393,-2.37311 0.52916,-3.43959 v -0.26458 l 5.02709,1.05833 c -0.19577,1.03478 -0.44456,1.938 -0.84929,2.91042 -0.35267,0.84737 -1.02603,2.49203 -0.78782,3.4106 0.238,0.91779 1.30533,1.08628 1.91067,0.43934 1.49371,-1.59636 0.044,-5.1438 1.66262,-6.22384 0.83789,-0.55907 2.39216,-0.27193 3.35549,-0.27193 l -3.617,-4.50179 -2.32777,-3.68988 -4.37399,-4.50833 c 2.4131,0.69651 3.8394,2.80348 6.08542,3.70192 1.41287,0.56517 2.92704,-0.043 4.23293,0.91052 1.62742,1.18832 1.3319,4.36303 3.44101,4.60368 2.03333,0.23199 2.91334,-2.5288 1.26147,-3.63231 -0.6063,-0.40503 -1.35428,-0.2763 -1.9807,-0.59838 -1.03105,-0.53011 -1.5257,-1.69102 -2.72137,-1.9909 -1.14249,-0.28654 -2.3112,0.0575 -3.43959,-0.40893 -1.77441,-0.73352 -2.99458,-2.36642 -4.7625,-3.11477 v -0.26458 c 2.18722,-0.42442 4.40272,-0.901 5.29167,-3.175 l -3.96875,1.50706 -7.67292,0.6096 c 2.06879,-1.6943 4.40629,-1.47822 6.87917,-2.08992 3.71849,-0.91982 8.27367,-3.92691 9.525,-7.69966 -7.26186,0 -10.93133,2.57368 -16.66875,6.61458 l 0.52916,-1.5875 0.52917,0.26459 3.70417,-3.70417 c 1.20254,0.10413 1.58,-0.43446 1.32291,-1.5875 l 1.05834,-0.26458 c 0.14782,-1.9152 1.95954,-2.45508 3.70416,-2.33246 7.03041,0.49413 12.22174,0.26927 18.52084,-3.22379 v -0.52917 c -5.05205,-2.36269 -11.33547,-2.72749 -16.40417,-0.19314 -2.39283,1.19642 -4.26004,3.21176 -6.61458,4.42647 1.76901,-2.49051 4.71988,-3.83607 7.14375,-5.59647 4.14716,-3.01198 8.48375,-8.037359 8.73125,-13.453529 -5.26187,0.77712 -9.83118,5.42437 -12.43174,9.789579 -1.589,2.66727 -2.15193,6.239 -5.29535,7.40834 v -1.32292 h -1.85208 l -0.26458,1.05834 c -1.70361,-0.35156 -2.21303,0.52269 -1.85209,2.11666 h -1.05833 c 0.0297,2.51637 0.69861,2.77548 -1.32292,4.7625 0,-3.75926 -0.91697,-8.88566 3.43959,-10.31875 1.18575,2.69369 6.44069,0.78092 5.82083,-2.11667 1.56142,-0.49319 1.5938,-2.094959 0.26458,-2.910409 1.33563,-1.89222 1.45211,-4.32505 2.92859,-6.08542 0.42961,-0.51222 1.57266,-1.47945 1.22471,-2.26835 -0.4344,-0.98496 -1.75136,0.6227 -2.03254,0.94952 -1.29992,1.51088 -1.6074,3.36116 -1.85617,5.28758 l -0.80417,-3.43958 -0.22477,-2.91042 3.67477,-8.73125 -5.29167,2.64583 c 0.006,-2.08146 0.62711,-3.85264 2.38513,-5.14019 1.3037,-0.9548 4.17639,-0.5784 3.58066,-3.06066 -0.42497,-1.77074 -2.88991,-2.10533 -3.76419,-0.50181 -0.94077,1.72546 -2.59824,3.67296 -3.26789,5.52766 -0.49614,1.37416 0.0662,2.92273 -0.63594,4.23334 -1.91579,3.57584 -4.80946,6.03906 -5.44152,10.31875 h -0.26458 c 0.13192,-3.02561 1.7559,-5.27028 2.94716,-7.9375 2.18568,-4.89371 3.78982,-10.61206 1.81534,-15.875 -8.11368,5.83978 -5.64987,16.32515 -5.82083,24.60625 h -0.26459 c -0.11452,-2.66698 -0.55017,-5.42099 -1.46684,-7.9375 -0.44309,-1.21642 -1.88412,-2.83266 -1.86637,-4.12105 0.0206,-1.49435 2.1747,-3.23874 2.79465,-4.6102 0.95609,-2.1151 0.34747,-4.20656 0.88623,-6.32632 0.22723,-0.89401 1.05461,-1.45679 1.16776,-2.40595 0.20177,-1.6924 -1.59354,-2.87817 -3.07414,-2.03134 -0.91322,0.52232 -1.23239,1.58873 -0.89093,2.56152 0.33236,0.94681 1.10481,1.63045 1.29924,2.64584 0.68609,3.58307 -2.21006,5.99571 -3.34751,8.99583 -2.77896,-3.08696 2.00041,-3.72384 0.93441,-6.61458 -1.83747,-4.98282 -6.08407,-9.19089 -8.34275,-14.02292 -1.95777,0.53546 -4.26402,2.33601 -6.35,2.09605 -1.44363,-0.16606 -2.83391,-1.58493 -4.23333,-2.06931 -2.15743,-0.74675 -4.62626,-0.64415 -6.87917,-0.54549 -2.80247,0.12273 -6.1798,2.46517 -8.73125,2.10522 -3.0368,-0.42842 -6.2993,-3.51514 -9.26041,-3.35444 -3.681489,0.19979 -7.582633,3.3041 -11.377088,3.96895 -2.293937,0.40194 -4.732762,-1.39962 -7.14375,-1.39947 -2.561096,1.6e-4 -4.341507,2.021 -6.614584,2.1771 -3.453879,0.23717 -6.871403,-2.06208 -10.054167,-2.97861 m 43.127089,3.43958 -2.38125,-0.26458 v 0.26458 l 1.5875,0.52917 h -2.38125 v 0.26458 l 1.32291,0.79375 c -2.12343,-0.18539 -4.08358,-1.96893 -6.08541,-2.02479 -3.859399,-0.10769 -6.968805,5.2397 -10.318755,0.70188 3.643932,-0.16652 6.575496,-2.86649 10.054165,-3.50778 1.81652,-0.33487 6.76865,2.08514 8.20209,3.24319 m 19.57916,-1.32291 v 0.26458 l -5.82083,-2.0401 -7.14375,0.4526 c 3.91227,-1.88013 9.4056,-0.75394 12.96458,1.32292 m -27.51666,-1.32292 v 0.26458 l 5.55625,2.11667 v -0.26458 l -5.55625,-2.11667 m 14.2875,0 v 0.26458 l -1.5875,0.26459 1.5875,-0.52917 m 12.17083,1.85208 v 0.26459 l -6.87917,-1.04772 -7.14375,0.78313 c 3.43035,-2.5558 10.50248,-2.00151 14.02292,0 m -29.104169,6.61459 -1.32292,-0.79375 c -2.974572,0.40342 -5.613598,-2.6909 -7.937496,-4.11064 -4.148915,-2.53469 -7.228572,-2.75085 -11.641667,-0.91645 0.868249,-1.47118 2.380435,-1.72031 3.96875,-1.8921 5.027585,-0.54375 8.162826,2.72269 12.170834,5.06404 1.432899,0.83705 3.819249,1.26627 4.762499,2.6489 m 15.081249,-7.9375 v 0.26458 l -2.38125,1.05833 2.38125,-1.32291 m -12.43541,0.26458 v 0.26458 l 4.7625,2.11667 v -0.26458 l -4.7625,-2.11667 m -10.583338,5.02708 c -7.824418,2.4743 -15.31532,0.53591 -23.018751,-1.05833 -0.785922,2.15899 -2.237129,4.14325 -3.452854,6.08542 -0.468927,0.74913 -1.487667,1.85971 -1.43071,2.79813 0.09144,1.50655 2.032394,3.45657 2.654408,4.87478 1.663134,3.79199 2.830379,8.01189 3.012494,12.17084 0.614849,14.041229 -10.008562,29.916549 0.618995,42.333329 5.123791,5.98643 12.351407,9.09051 19.499751,11.95913 4.014751,1.61111 9.873966,3.40689 12.700005,6.82629 h 0.26458 c 2.48602,-2.79882 6.93806,-4.43739 10.31875,-5.89514 7.4368,-3.20675 15.58085,-5.81454 21.09092,-12.09653 11.31713,-12.90254 0.75992,-29.09735 1.40908,-43.920829 0.16266,-3.71439 1.18404,-7.73608 2.7181,-11.1125 0.66784,-1.46992 2.84424,-3.6801 2.77159,-5.29167 -0.12508,-2.77491 -3.84963,-6.39363 -4.97094,-8.99583 -6.98765,2.36392 -13.62531,2.99865 -20.90208,1.5875 v -0.26459 c 2.61169,-0.29173 5.32157,0.4343 7.9375,0.51774 2.86187,0.0913 5.97529,-0.55378 8.73125,-1.28087 1.69173,-0.44632 3.92023,-1.95797 5.02708,-0.0306 h 0.26458 c -1.13478,-2.09814 -2.91343,-0.90723 -4.7625,-0.43117 -5.07692,1.30711 -9.65743,1.06685 -14.81666,0.96034 v -0.52917 l 8.20208,0.2409 6.35,-1.03465 v -0.26458 l -14.02292,0.79375 v -0.52917 c 4.71566,0.013 8.83157,0.27288 13.49375,-0.89297 1.2451,-0.31135 4.3116,-2.02753 5.45601,-1.45316 1.85434,0.93067 3.43717,5.08416 4.44668,6.84405 0.75671,1.31916 2.85786,3.45571 2.78058,5.02708 -0.0858,1.7439 -2.5685,3.93706 -3.33812,5.55625 -1.75177,3.68551 -2.69346,7.5821 -2.97146,11.64167 -1.00899,14.733609 9.42996,28.490099 -0.0312,42.333329 -6.2324,9.11897 -17.64743,12.29572 -27.24453,16.51666 -1.81714,0.7992 -3.67391,1.85258 -5.29167,3.00472 -0.78185,0.55683 -1.63411,1.60457 -2.64583,1.70021 -1.12217,0.10606 -2.302009,-1.1546 -3.174999,-1.72307 -2.277197,-1.48283 -4.678778,-2.67793 -7.143752,-3.80644 -11.453347,-5.24358 -24.872034,-9.17551 -28.72628,-22.83583 -3.005005,-10.65041 3.064804,-20.44192 3.322399,-30.956249 0.116833,-4.76883 -0.269339,-9.5693 -2.115847,-14.02292 -0.87921,-2.12057 -3.933542,-5.24027 -4.012441,-7.40833 -0.04544,-1.2486 1.284951,-2.68526 1.898834,-3.70417 1.664926,-2.76338 3.749836,-5.50635 5.027084,-8.46666 4.222869,0.63253 8.050882,2.70799 12.435417,2.9 3.852091,0.16869 8.913527,-2.03903 11.641667,1.33333 m 33.337498,-3.43958 v 0.26458 c -9.23503,-1.79091 -15.36703,9.97894 -25.135419,5.82083 2.327749,-0.83488 5.322169,0.53807 7.937509,-0.27131 5.66493,-1.75315 10.79957,-9.02531 17.19791,-5.8141 m -38.893748,-0.2646 v 0.26458 l -5.55625,0.26458 c 1.562199,-1.08561 3.774031,-0.86002 5.55625,-0.52916 m 25.929168,-0.26459 -0.52917,0.52917 0.52917,-0.52917 m 19.84375,1.85209 v 0.26458 l 4.7625,-1.32292 c 0.78918,2.68191 2.87506,5.29952 4.34562,7.67292 0.55828,0.90104 1.63508,2.07787 1.70571,3.175 0.10764,1.67211 -2.5835,4.73313 -3.32383,6.35 -1.81932,3.97337 -2.4154,8.1224 -2.70382,12.43542 -0.85285,12.753639 8.01268,24.405839 2.27489,37.041669 -1.07263,2.36216 -2.74373,4.44225 -4.49077,6.33958 -5.39964,5.86418 -13.62505,8.70926 -20.82655,11.59921 -3.40606,1.36684 -9.19174,3.3478 -11.1125,6.66746 3.211,-1.82914 6.12275,-3.94417 9.525,-5.47377 10.56653,-4.75059 22.72123,-8.26984 27.66794,-19.92623 5.31451,-12.52307 -3.3959,-25.74909 -2.50884,-38.629169 0.25427,-3.69205 1.33278,-7.54403 2.98473,-10.84792 0.73318,-1.46637 3.18308,-3.92509 3.04495,-5.55625 -0.2131,-2.51642 -3.65015,-6.30048 -4.9789,-8.46667 -0.47825,-0.77966 -0.95695,-2.16124 -1.91721,-2.45842 -1.20882,-0.37411 -3.1807,0.9482 -4.44892,1.13551 m -16.93333,-0.26459 v 0.52917 l -3.175,-0.52917 h 3.175 m -7.67292,1.5875 c -1.26196,1.78617 -7.187039,0.79375 -9.260419,0.79375 v 0.26459 h 7.672919 l -0.26458,1.05833 c -3.35226,0.36451 -6.452749,0.99981 -9.525004,-1.32292 l 6.350004,-2.53313 5.02708,1.73938 m 2.64583,-1.32291 -0.26458,0.26458 0.26458,-0.26458 m 3.96875,0.79375 h -2.64583 v 0.26458 l 1.5875,0.52917 c -1.0074,0.16201 -2.00297,0.0545 -2.64583,-0.79375 h 1.05833 v -0.26459 l -0.52917,-0.26458 3.175,0.52917 m -4.49791,-0.52917 -0.26459,0.26458 0.26459,-0.26458 m -8.20209,0.79375 v 0.26458 l 2.11667,-0.26458 h -2.11667 m 35.71875,0.26458 c 1.01142,2.66845 4.42075,5.62757 4.66921,8.46667 0.13942,1.59306 -2.19529,4.06735 -2.85367,5.55625 -1.70249,3.85014 -2.82252,7.94044 -2.87285,12.17083 -0.16613,13.964609 9.9587,30.039349 -0.84356,42.333339 -5.10429,5.80916 -11.96234,8.92952 -19.00121,11.74742 -4.47863,1.79294 -10.59539,3.7401 -13.75833,7.56716 3.54937,-1.50045 6.75514,-4.1031 10.31875,-5.73916 10.47911,-4.81102 23.40734,-8.39438 26.94646,-20.98375 0.59154,-2.1042 1.01123,-4.42571 1.06528,-6.61459 0.23046,-9.33281 -4.69067,-18.10074 -4.45995,-27.516669 0.10698,-4.36582 1.16316,-8.70927 2.90756,-12.7 0.74965,-1.71499 2.8378,-3.7078 3.00657,-5.55625 0.19188,-2.10152 -3.61164,-7.33481 -5.12426,-8.73125 m -20.10833,0.26459 -0.26458,0.26458 0.26458,-0.26458 m -25.664585,1.85208 -0.489973,5.29044 0.308274,1.23268 0.883167,-0.92726 -0.436884,-5.86044 c 2.126227,-0.34499 3.641517,0.8812 5.55625,1.5875 l -0.529167,0.26458 v 0.26458 l 8.202088,0.97892 10.84791,-2.831 v 0.26458 l -4.7625,1.5875 v 0.26459 h 0.79375 v 0.26458 l -1.32291,-0.26458 c -1.03865,1.28573 -3.74311,1.31865 -5.29167,1.32291 v 0.26459 c 2.21127,-0.006 4.82725,-0.45312 6.87917,-1.31087 1.45759,-0.60932 2.91142,-1.80886 4.49791,-2.04563 3.35734,-0.50104 7.09087,0.80899 10.58334,0.33359 1.97013,-0.26818 3.90791,-0.626 5.82083,-1.17348 0.77394,-0.2215 1.81739,-0.78353 2.59704,-0.35094 1.34674,0.74724 4.39923,5.66418 4.39972,7.19316 5.4e-4,1.65355 -1.97115,3.74374 -2.60378,5.29167 -1.55182,3.79699 -2.86153,8.11874 -3.07701,12.24637 -0.59895,11.473659 6.82434,22.934059 3.59781,34.320299 -4.44964,15.7025 -23.67941,16.8494 -35.07628,25.13541 -4.033529,-2.2456 -7.906293,-4.41722 -12.170835,-6.2369 -7.526935,-3.21172 -16.067753,-6.10981 -20.717324,-13.34226 -7.390429,-11.49587 0.01528,-24.06013 0.849891,-36.247919 0.326886,-4.77352 -0.528185,-10.13582 -2.360628,-14.55209 -0.827614,-1.99459 -2.598735,-4.04591 -3.132742,-6.08541 -0.406573,-1.55281 2.905972,-6.51686 4.090836,-7.56125 1.160858,-1.02323 4.540214,0.68094 5.924133,0.92441 5.667323,0.99703 10.529776,-10e-4 16.139584,-0.24233 m 16.668755,-1.32292 -0.26459,0.26459 0.26459,-0.26459 m 2.91041,0.26459 v 0.26458 l -6.08541,1.85208 c 1.74907,-1.30865 3.92963,-2.20161 6.08541,-2.11666 m -41.010415,1.05833 c 1.060767,1.9975 5.940416,6.93577 8.202083,7.3479 1.502061,0.27372 2.999046,-0.16926 4.487505,-0.12412 0.735699,0.0223 1.374198,0.64911 2.098293,0.57041 0.611736,-0.0665 0.925089,-0.78574 0.545704,-1.28454 -0.630324,-0.82871 -1.9011,0.2253 -2.643997,0.33155 -1.974395,0.2824 -4.553178,0.35346 -6.075005,-1.03588 -1.98341,-1.81073 -3.866927,-5.25092 -6.614583,-5.80532 m 64.029165,0 1.5875,1.05833 -1.5875,-1.05833 m -61.912499,0.26458 v 0.26459 l 1.852084,0.26458 v -0.26458 l -1.852084,-0.26459 m 62.970839,0 -0.26459,0.26459 0.26459,-0.26459 m -64.293755,0.26459 -0.264584,0.26458 0.264584,-0.26458 m 22.225001,0 v 0.26458 h 1.322916 l -1.322916,-0.26458 m 38.100004,0.26458 v 0.26458 l 2.11666,-0.26458 h -2.11666 m -36.336118,0.0882 0.176394,0.0882 -0.176394,-0.0882 m -25.840971,0.44097 v 0.52917 c 3.2344,1.26913 4.80871,4.91134 7.672917,6.71951 1.661276,1.04877 3.86931,-0.15737 5.55625,0.88521 0.868794,0.53695 3.180172,4.31751 4.076544,3.54738 1.203876,-1.03433 -2.539908,-3.35287 -3.282794,-3.87239 -1.788254,-1.25058 -3.999473,-0.0264 -5.820833,-0.93706 -2.576349,-1.28817 -5.226159,-7.16353 -8.202084,-6.87182 m 20.108334,-0.26458 -0.589188,7.92565 0.85357,1.06855 0.817222,-1.0712 -0.552437,-7.923 h -0.529167 m 7.320137,0.35278 0.176394,0.0882 -0.176394,-0.0882 m 31.573618,-0.0882 0.26458,6.87916 c -1.59277,0 -3.93152,-0.54286 -4.49792,1.32292 h -1.32291 v 0.52917 h 1.5875 l -0.26459,1.05833 h -2.11666 c -0.51698,-0.71982 -2.09992,-0.66408 -1.54095,0.44894 0.49083,0.97738 3.0019,-0.17359 3.9222,-0.18436 v 1.05834 h -1.85209 v 0.52916 h 1.85209 v 1.05834 h -1.85209 v 0.26458 h 1.85209 c 0.13088,1.64125 1.23048,1.58344 2.64583,1.5875 -0.16502,1.54601 0.20588,2.9308 -0.8848,4.22721 -0.61802,0.73461 -3.08653,1.13067 -2.96065,2.11237 0.26177,2.0413 2.67089,-0.89019 3.04027,-1.26758 1.22395,-1.2505 1.49494,-3.38913 1.06976,-5.072 h 1.32292 c -0.15493,1.45155 0.36154,3.1923 -0.46098,4.49404 -0.65119,1.0306 -4.8243,3.86686 -4.39115,4.95073 0.64869,1.62321 2.37026,-1.89886 2.7471,-2.30102 1.98007,-2.11308 3.01806,-4.15098 2.36961,-7.14375 h 1.05834 v 1.32292 l 0.79375,-0.26459 -0.26459,-1.05833 c 1.00404,-0.21886 1.24238,-0.57452 1.32292,-1.5875 1.81757,0.001 2.93443,0.18834 3.43958,2.11667 h 0.26459 c -0.13237,-2.41591 -1.6732,-2.38125 -3.70417,-2.38125 v -1.32292 h 3.96875 v -0.26458 h -3.96875 v -1.05834 l 3.70417,-0.26458 v -0.26458 h -3.70417 v -1.05834 l 1.85208,0.26459 -1.85208,-0.52917 c -0.26303,-1.57611 -1.58148,-1.32277 -2.91042,-1.32292 v -6.87916 h -0.52916 m 1.5875,0 v 6.61458 c 1.23539,-1.07951 0.52916,-5.02195 0.52916,-6.61458 h -0.52916 m -7.67292,0.26458 c -0.46949,2.0867 2.07964,2.37825 2.90205,3.97917 0.45504,0.88577 -0.055,1.74671 0.80212,2.37083 -2.6e-4,-2.35222 -0.99458,-4.78005 -3.70417,-5.02708 v -1.32292 m 3.96875,0.26458 1.05833,0.79375 -1.05833,-0.79375 m -52.122919,0 v 0.26459 l 1.058334,0.26458 -1.058334,-0.52917 m 1.852084,0 v 0.26459 c 3.743994,1.10665 8.793823,0.26458 12.7,0.26458 v -0.52917 h -12.7 m 14.552084,0 v 0.52917 l 0.529166,-0.52917 h -0.529166 m 2.998614,0.17639 0.08819,0.17639 -0.08819,-0.17639 m 2.293053,-0.17639 v 0.52917 h 0.529166 l -0.529166,-0.52917 m 2.116666,0 v 0.26459 l 1.058329,0.26458 v -0.26458 l -1.058329,-0.26459 m 16.139588,0 c 1.12678,1.28949 5.47148,0.52917 7.14375,0.52917 l -7.14375,-0.52917 m 9.78958,0 v 0.26459 l 3.01515,2.69075 0.68902,3.13008 c -0.21729,-2.75312 -0.27391,-5.62347 -3.70417,-6.08542 m 2.91042,0 -0.26459,0.26459 0.26459,-0.26459 m 4.49791,0 v 0.52917 h 2.38125 v -0.52917 h -2.38125 m 3.175,0 -0.52916,7.9375 c 1.32375,-0.85818 1.52066,-6.80553 0.52916,-7.9375 m 1.32292,0 1.32292,0.79375 v -0.79375 h -1.32292 m -66.675002,0.52917 1.058333,0.52917 -1.058333,-0.52917 m 25.135418,-0.26458 0.264583,0.26458 -0.264583,-0.26458 m 42.333334,0 -0.26458,0.26458 0.26458,-0.26458 m -37.129869,0.35278 0.1764,0.0882 -0.1764,-0.0882 m 35.189589,0.0882 -0.0882,0.17639 0.0882,-0.17639 m -52.299305,0.0882 v 0.26458 h 0.79375 l -0.79375,-0.26458 m 18.520836,0.26458 v 0.26458 h 0.793749 l -0.793749,-0.26458 m -32.808336,1.32292 7.672916,7.32422 5.291667,1.67161 c -0.823952,-2.26107 -3.047145,-1.03745 -4.716564,-2.06481 -2.410335,-1.48333 -5.30342,-4.89344 -6.925103,-7.19561 2.4938,0.87874 4.216135,3.49817 6.085417,5.28657 1.725012,1.65036 3.069924,0.77287 5.026882,1.52441 0.877748,0.33708 1.819814,1.196 1.881684,2.18486 0.03973,0.63509 -0.543309,1.60975 0.126373,2.0938 0.582995,0.42138 1.080861,-0.23558 1.048939,-0.7864 -0.05768,-0.99526 -0.846044,-2.56459 -1.560346,-3.24298 -1.515964,-1.43977 -3.284082,-0.42074 -4.936032,-1.24677 -2.212922,-1.10653 -3.870351,-3.95435 -5.70855,-5.6077 -0.99893,-0.89849 -2.534778,-1.25202 -3.287283,0.0588 m 15.610417,1.32291 v -0.26458 l -2.116667,-1.5875 3.439584,0.26458 c -0.735885,-0.32758 -2.863581,-0.93131 -3.540434,-0.33644 -1.549877,1.36215 1.383835,2.01418 2.217517,1.92394 m 18.520838,-2.38125 v 0.26459 h 1.05833 l -1.05833,-0.26459 m 29.10416,0.52917 2.11667,0.52917 c -0.55859,-0.78855 -1.22412,-0.77849 -2.11667,-0.52917 m 3.43959,-0.26458 -0.26459,0.26458 0.26459,-0.26458 m 1.05833,0 v 0.79375 l 2.38125,0.26458 c -0.55878,-1.01335 -1.28045,-1.04532 -2.38125,-1.05833 m -59.531252,0.26458 v 0.26458 l 4.233334,0.26459 v -0.52917 h -4.233334 m 9.260417,0 v 0.26458 h 2.38125 l -2.38125,-0.26458 m 7.937501,0 v 0.26458 h 0.79375 l -0.79375,-0.26458 m 19.579164,0 0.26459,0.26458 -0.26459,-0.26458 m 1.32292,0 0.26458,0.26458 -0.26458,-0.26458 m 1.5875,0 v 0.26458 h 1.5875 l -1.5875,-0.26458 m 2.38125,0 v 0.26458 h 2.38125 l -2.38125,-0.26458 m 2.64583,0 v 0.26458 h 1.32292 l -1.32292,-0.26458 m -53.974999,2.11667 h 2.38125 c -0.674938,-0.95535 -1.708075,-0.93257 -2.38125,0 m 68.791669,0 h 3.43958 c -0.92156,-0.94105 -2.64918,-1.21919 -3.43958,0 m -57.414585,-0.5292 v 0.26458 h 2.645833 l -2.645833,-0.26458 m 7.849307,0.0882 0.176386,0.0882 -0.176386,-0.0882 m 0.79375,0 0.176386,0.0882 -0.176386,-0.0882 m 3.263193,9.70138 c 1.431276,0 3.927224,0.80385 5.205513,0.34584 1.842685,-0.66024 3.288283,-3.8599 5.113233,-4.98442 4.899709,-3.01917 12.863719,-0.18969 13.493759,5.9615 2.92598,-0.33394 1.59187,-3.08589 1.92578,-5.02708 0.35295,-2.05198 1.48174,-3.1591 0.45547,-5.29167 -3.56923,2.77916 -6.74276,-0.4826 -10.84792,-0.77007 -6.876539,-0.48153 -12.299275,3.9818 -15.345835,9.7659 m 28.839585,-9.78958 0.26458,0.26458 -0.26458,-0.26458 m 0.52917,0 v 0.26458 h 1.5875 l -1.5875,-0.26458 m 2.64583,0 v 0.26458 h 1.5875 l -1.5875,-0.26458 m 8.99583,0 v 0.26458 h 2.38125 l -2.38125,-0.26458 m -38.893748,1.05833 -1.058333,-0.26458 1.058333,0.26458 m -6.879167,0 -0.264583,1.05834 h -0.264583 v -1.05834 h 0.529166 m -18.520834,0.26459 v 0.79375 h 3.704167 c -1.004715,-1.02597 -2.348956,-0.79375 -3.704167,-0.79375 m 68.791669,0.79375 3.43958,-0.26459 c -1.00137,-0.67154 -2.6979,-0.78807 -3.43958,0.26459 m -12.96458,-0.52917 0.26458,0.26458 -0.26458,-0.26458 m 8.73125,0 v 0.52917 h 2.11666 v -0.52917 h -2.11666 m -13.75834,0.26458 -0.98382,4.49792 -0.0745,4.7625 c 1.24484,-1.21906 0.42222,-2.46797 0.70902,-3.96875 0.37518,-1.96324 2.02281,-3.36731 0.34931,-5.29167 m -49.741665,1.32292 v 0.52917 h 3.96875 l -3.96875,-0.52917 m 67.997915,0.26458 v 0.26459 l 2.11667,-0.26459 h -2.11667 m -45.772915,0.26459 -0.264583,0.79375 h -0.529167 l -0.264583,-1.05834 1.058333,0.26459 m -7.14375,0 -0.264583,0.26458 0.264583,-0.26458 m 47.625005,0 v 0.26458 h -0.79375 l 0.79375,-0.26458 m -1.32292,0.26458 v 0.26458 h -3.96875 v 1.32292 h -0.26458 v -1.5875 h 4.23333 m -2.64583,0.52917 -0.26459,0.26458 0.26459,-0.26458 m 2.11666,0 -0.26458,0.26458 0.26458,-0.26458 m -60.060415,0.26458 c 0.831619,1.28275 3.311434,0.97534 4.497916,0.26458 l -4.497916,-0.26458 m 28.045834,6.08542 c 1.692322,-0.55689 2.811112,-2.7347 4.233331,-3.8287 2.50022,-1.92322 5.29055,-1.76301 8.20209,-1.19839 -4.12663,-3.08685 -11.314713,0.30008 -12.435421,5.02709 m 29.368751,-6.08542 -0.26458,0.26458 0.26458,-0.26458 m 9.78958,0 v 0.52917 h 1.05834 v -0.52917 h -1.05834 m 12.43542,0 -0.26458,0.26458 0.26458,-0.26458 m -22.225,0.52917 -0.26458,0.26458 0.26458,-0.26458 m 21.96042,0 -0.79375,0.79375 0.79375,-0.79375 m -26.45834,1.05833 -1.32291,-0.26458 c 0.63842,-0.43967 0.89758,-0.38205 1.32291,0.26458 m 4.49792,-0.52917 -0.26458,0.26459 0.26458,-0.26459 m -0.79375,0.26459 v 3.175 h -0.26458 l 0.26458,-3.175 m 44.45,0 -0.79375,1.32291 v -1.05833 l -0.79375,0.79375 -0.52917,-0.79375 -1.5875,2.11667 -0.79375,-0.26459 v 0.79375 l 0.79375,-0.26458 -0.79375,1.05833 1.05834,0.52917 v 0.26458 h -1.05834 l 0.79375,0.52917 v 0.79375 l -0.79375,0.52917 h 1.05834 l 1.05833,1.05833 v 1.05833 h 0.52917 v -1.05833 l 0.79375,1.05833 h 0.26458 l 0.79375,-1.05833 v 1.05833 h 0.52917 v -1.05833 h 0.79375 v 1.05833 h 0.26458 v -1.05833 h 1.05834 v -1.05833 h 1.05833 l -0.79375,-0.52917 v -0.79375 l 0.79375,-0.26458 -0.79375,-1.05834 h 1.05833 v -0.26458 h -1.05833 l 0.79375,-1.32292 h -1.05833 l -1.05834,-1.05833 v -1.05833 h -0.26458 l -0.79375,1.32291 -0.52917,-1.32291 m -100.277095,0.26458 v 0.79375 l 5.027083,-0.26459 -5.027083,-0.52916 m 16.933334,0 -0.264584,1.32291 h -0.264583 l 0.529167,-1.32291 m -32.10278,0.70555 -0.08819,0.17639 0.08819,-0.17639 m -16.580556,0.35278 -0.264583,0.26458 0.264583,-0.26458 m 133.879177,0.52917 v 0.26458 h -4.49792 l 4.49792,-0.26458 m -134.672927,0.26458 -0.264583,0.26458 0.264583,-0.26458 m 2.910417,0 -0.264583,0.26458 0.264583,-0.26458 m 14.816667,0 v 1.05833 h -0.264583 l 0.264583,-1.05833 m 15.345834,0 v 0.52917 l 5.027084,-0.26459 -5.027084,-0.26458 m 5.291667,0 0.264583,0.26458 -0.264583,-0.26458 m 17.462501,0 -0.264584,0.26458 0.264584,-0.26458 m -57.414586,0.35278 0.08819,0.0882 c -0.13058,0.0435 -0.292804,-0.0882 -0.08819,-0.0882 m 0.79375,-0.0882 -0.264583,0.26458 0.264583,-0.26458 m 99.130557,0.0882 0.17639,0.0882 -0.17639,-0.0882 m 19.40278,-0.0882 -0.26458,0.26458 0.26458,-0.26458 m -71.437502,0.26458 -1.058333,0.52917 1.058333,-0.52917 m -30.956251,0.52917 -0.264583,0.26458 0.264583,-0.26458 m 74.877083,0 -0.26458,0.26458 0.26458,-0.26458 m 0.79375,0 -0.26458,0.26458 0.26458,-0.26458 m -92.604167,0.26458 -0.264583,0.26459 0.264583,-0.26459 m 1.8627,0.17129 c 1.845539,-0.23146 2.379298,2.53233 0.507935,2.86019 -1.860018,0.32587 -2.387967,-2.62441 -0.507935,-2.86019 m 105.028967,-0.17129 0.60736,3.43959 -1.13652,8.20208 c -2.02582,-0.92093 -1.8446,-2.79544 -0.79375,-4.49792 -1.32814,-0.22162 0.69178,-6.21158 1.32291,-7.14375 m -78.581249,0.26459 1.852083,6.61458 c -2.231291,-1.23986 -2.25354,1.3319 0,0.79375 0,2.16869 0.06202,3.31679 -2.116666,4.23333 0.0024,-4.35936 -1.789466,-7.40201 0.264583,-11.64166 m 6.879167,0 4.233333,0.52916 -4.233333,-0.52916 m 62.177082,0.26458 0.26459,0.26458 -0.26459,-0.26458 m 1.05834,0 v 0.52917 h 0.52916 v -0.52917 h -0.52916 m -81.756256,0.26458 0.79375,2.11667 h -0.264583 l -0.529167,-2.11667 m -3.96875,0.26459 -0.264584,0.26458 0.264584,-0.26458 m 25.664584,2.91041 c 4.099984,0.61729 3.96875,4.9127 3.96875,8.20209 V 117.2285 c 0,3.8123 -0.01769,7.13408 -3.96875,8.73125 1.581662,3.206 4.514122,0.54697 6.879167,0.66513 2.115557,0.1057 5.595169,2.77029 6.614584,-0.66513 -5.857439,-1.51285 -3.968751,-11.0308 -3.968751,-15.61042 l 2.381251,0.79375 c -7.43e-4,-1.12091 0.174399,-2.84281 -0.532639,-3.79725 -0.473817,-0.63961 -1.357262,-0.74206 -1.688964,-1.52953 -0.405248,-0.96207 -0.159648,-2.38005 -0.159648,-3.40446 0,-2.628689 -0.924229,-7.430939 0.311948,-9.778969 0.78759,-1.49597 2.659932,-1.93786 4.185969,-2.1922 4.548746,-0.75813 9.542966,1.68738 10.060086,6.6795 0.258035,2.49103 -0.150185,5.400029 -1.73347,7.404459 -0.764779,0.9682 -2.399329,1.58571 -2.875099,2.70523 -0.443755,1.04418 0.08192,2.54348 0.104734,3.64864 4.406425,-0.36039 8.128254,-3.64428 9.676284,-7.67291 0.54807,-1.42632 1.5985,-3.955809 0.1133,-5.027089 v -0.52916 c 2.81738,-1.84776 -2.328159,-7.73326 -3.968749,-8.83762 -3.956592,-2.66337 -9.527885,-2.7366 -14.022919,-1.74204 -1.471915,0.32567 -3.025433,1.3512 -4.497917,1.46112 -2.246875,0.16773 -5.831209,-2.77297 -6.879167,0.91645 m 51.593752,-2.64583 v 1.32292 l 0.79375,-1.32292 h -0.79375 m -80.433336,0.52917 -0.264584,0.26458 0.264584,-0.26458 m 3.704166,0 1.322917,1.5875 -1.322917,-1.5875 m 22.489585,0 v 0.52916 h 1.852083 l -1.852083,-0.52916 m 60.589585,0 v 0.52916 h 1.85208 l -1.85208,-0.52916 m 25.66458,0 -0.79375,0.79375 0.79375,-0.79375 m -49.47708,1.85208 c 4.17948,1.83976 1.59226,6.30345 0.52896,9.525 -2.80817,8.508109 -6.45012,17.213469 -8.466459,25.929159 0.94131,0.5357 2.731979,1.67524 3.855039,1.15919 0.923,-0.42413 1.06685,-2.40929 1.34924,-3.27585 0.74885,-2.29795 1.54246,-4.58127 2.29143,-6.87917 0.27776,-0.85216 0.40812,-2.1249 1.10672,-2.75077 0.78734,-0.70536 2.33114,-0.42423 3.30382,-0.42423 h 8.20208 c 0.53328,3.95697 5.66053,11.48652 0.26459,13.49375 1.00321,3.37853 4.55869,0.57431 6.61458,0.70188 1.26217,0.0783 2.4159,0.93766 3.70417,1.06017 0.82783,0.0787 2.5018,-0.17341 2.66665,-1.22329 0.12605,-0.80268 -1.3713,-1.18991 -1.86903,-1.54503 -1.36868,-0.97655 -2.15293,-2.48371 -2.7332,-4.02081 -2.91402,-7.71905 -5.15714,-15.72192 -7.76581,-23.547919 -0.91636,-2.74907 -2.93643,-6.77383 0.97014,-7.9375 -1.03997,-3.66134 -4.67341,-0.894 -6.87917,-0.80906 -2.39226,0.0921 -5.48985,-2.80799 -7.14375,0.54448 m -62.706253,-1.32292 -0.264583,0.26459 0.264583,-0.26459 m 84.931253,0.26459 c -0.39659,2.56654 -0.47712,3.85266 -2.63052,5.63301 -0.41463,0.3428 -1.2405,0.9405 -0.78722,1.57504 0.87693,1.22762 1.64815,-1.24478 1.93293,-1.6518 1.22402,-1.74941 2.43051,-3.30251 1.48481,-5.55625 m 37.30625,0.26458 -0.26458,0.26458 0.26458,-0.26458 m -121.708336,0.26458 0.529166,0.79375 -0.529166,-0.79375 m 76.729166,0.26459 0.52917,1.32291 c -4.421,0.40117 -1.66997,5.57343 -0.79375,8.20209 2.69879,8.096359 4.4199,17.747309 8.73125,25.135409 h 0.26458 c -3.2401,-7.79281 -5.66622,-16.0229 -8.19555,-24.077079 -1.01958,-3.24668 -3.38509,-7.0508 0.52264,-8.99583 l -1.05834,-1.5875 m -50.799999,0.26458 v 0.26458 h 1.058334 l -1.058334,-0.26458 m 59.795839,0 v 0.26458 h 2.38125 l -2.38125,-0.26458 m -80.962506,0.26458 -0.264583,0.26459 0.264583,-0.26459 m 97.631256,0 -0.26459,0.26459 0.26459,-0.26459 m -101.600006,0.26459 -0.264584,0.26458 0.264584,-0.26458 m 35.454168,0 -0.264584,0.26458 0.264584,-0.26458 m 61.383338,0 -0.79375,3.96875 h -0.26459 l 1.05834,-3.96875 m -35.10139,0.44097 0.0882,0.17639 -0.0882,-0.17639 m 40.12847,0.0882 -0.26458,0.26458 0.26458,-0.26458 m -67.997918,0.26458 -0.264584,0.26458 0.264584,-0.26458 m 61.383338,0 -0.26459,0.79375 0.26459,-0.79375 m 16.66875,0 -0.26459,0.26458 0.26459,-0.26458 m -110.59584,0.26458 0.264584,0.52917 -0.264584,-0.52917 m 24.077085,0 v 0.52917 l 1.5875,-0.52917 h -1.5875 m 2.645833,0 v 0.26459 l 0.79375,0.26458 -0.79375,-0.52917 m 57.679172,0.26459 v 0.26458 l 1.85208,-0.52917 -1.85208,0.26459 m 11.90625,-0.26459 c 1.85034,3.95751 5.808,6.189 5.82083,10.847919 h -0.26458 l -1.32292,-2.116669 h -0.52917 l 1.86392,3.968749 0.51733,5.55626 h -0.26458 c -0.49158,-2.38168 -1.25843,-4.60267 -2.65625,-6.61459 -1.09788,-1.58022 -3.08835,-2.858619 -3.95098,-4.508329 -0.89113,-1.70421 -0.28423,-5.63066 0.7864,-7.13334 m -29.36875,26.987509 c -0.4425,10.1486 -12.6975,11.45795 -18.15295,4.49791 -6.28815,-8.0224 -5.117057,-21.25227 -3.013721,-30.427079 -1.286671,-0.40788 -4.193276,-1.37166 -5.407216,-0.48181 -0.687353,0.50385 -0.858059,1.82348 -1.031385,2.59847 -0.548529,2.45262 -0.938824,5.16051 -0.968711,7.672919 -0.110661,9.30158 0.915068,20.2658 8.994812,26.32237 6.345181,4.75635 12.503441,2.91706 18.785421,-0.42872 0.89433,-0.47633 2.28127,0.24988 2.94777,-0.40014 0.88775,-0.8658 0.1,-2.29735 -0.0772,-3.26851 -0.41492,-2.27447 0.79798,-5.0204 -2.07686,-6.08541 m 44.97916,-26.722919 0.26459,1.32291 h -0.26459 v -1.32291 m -97.895832,0.26458 1.058333,6.61458 h -0.264583 l -0.79375,-6.61458 m 24.870834,0 c -3.754584,2.2252 -2.645834,6.39974 -2.645834,10.318749 0,1.33929 -0.453945,3.42446 0.793751,4.23334 -0.699469,-2.94617 -0.503765,-8.356889 0.06043,-11.373209 0.246226,-1.3164 1.975113,-1.84305 1.791654,-3.17888 m -21.695834,1.5875 -0.264584,0.26458 h -0.529166 l -0.529167,-1.05833 1.322917,0.79375 m 94.191671,-1.05833 c 0.11183,1.41689 0.86763,3.59237 -0.52917,4.49791 -0.72938,-1.44165 -1.86105,-1.34314 -2.64583,0 -1.56753,-0.31453 -2.78904,0.40827 -2.64584,2.11667 -1.28219,1.01652 -1.52078,2.039379 -0.26458,3.174999 v 2.11667 l -1.32292,0.26458 c -0.73194,-5.791599 1.93254,-9.855949 7.40834,-12.170829 m -18.25625,0.26458 0.26458,0.26458 -0.26458,-0.26458 m -79.904171,0.26458 -0.264584,2.11667 v 0.26458 l 0.79375,0.26459 c -0.158218,1.06501 0.42298,2.11382 0.176592,3.16458 -0.410121,1.74903 -3.491146,4.660579 -5.203675,5.037499 l 1.322916,-3.704169 -2.116666,2.116669 c 0.07563,-3.662239 2.677488,-6.864689 5.291706,-9.260419 m 63.235422,0 -0.79375,1.05834 0.26458,-1.05834 h 0.52917 m 6.87916,0.26459 v 0.26458 l 2.64584,0.26458 -0.26459,-0.79375 -2.38125,0.26459 m 32.54375,-0.26459 -0.26458,0.26459 0.26458,-0.26459 m -91.810415,0.26459 v 0.26458 h 3.439583 l -3.439583,-0.26458 m 58.737505,0 0.26458,0.26458 -0.26458,-0.26458 m -36.512504,1.05833 h 0.264583 c 0.172866,-0.5186 0.264583,-0.67574 0.264583,0 h 0.264584 l -0.264584,-0.79375 -0.529166,0.79375 m -50.270836,-0.52917 -0.264583,0.26459 0.264583,-0.26459 m 97.10209,0 v 0.52917 h 0.52916 l -0.52916,-0.52917 m -47.095838,0.79375 c -0.3571,2.82316 -0.649952,5.64571 -0.982797,8.466669 -0.140091,1.18735 -0.376923,2.72961 0.718214,3.43959 l 0.264583,-10.583339 h 0.264584 v 0.52917 h 0.264583 l -0.529167,-1.85209 m 0.529167,0 v 0.79375 h 0.264583 l -0.264583,-0.79375 m 49.477081,0 -0.52916,1.05834 1.32291,-1.05834 h -0.79375 m -71.966665,0.26459 v 0.26458 l 2.116666,0.26458 v -0.52916 h -2.116666 m 32.279165,0 0.26459,0.26458 -0.26459,-0.26458 m 23.28334,0 0.26458,1.05833 -1.05833,-0.26458 v -0.52917 l 0.79375,-0.26458 m 4.7625,0.52916 1.05833,-0.26458 -1.05833,0.26458 m 1.85208,-0.52916 c -1.41319,1.41319 -3.34073,4.26617 -5.29167,4.85314 -0.71452,0.21497 -1.38263,-0.30021 -2.07359,-0.12698 -0.5718,0.14336 -0.74813,0.7846 -0.47282,1.272279 0.62429,1.10589 1.69655,-0.265389 2.33716,-0.562849 1.78643,-0.8295 5.69463,-3.07628 5.50092,-5.43559 m 8.20208,0 v 2.38125 h -0.26458 l 0.26458,-2.38125 m -28.04583,0.26458 4.23333,14.022919 h -8.73125 l 2.71994,-8.995839 1.77798,-5.02708 m -9.70139,0.70555 0.0882,0.1764 -0.0882,-0.1764 m 20.28472,0.88195 -1.05833,-0.79375 1.05833,0.79375 m 35.71875,-0.79375 v 1.05833 h -0.26458 l 0.26458,-1.05833 m -88.370832,0.26458 c 0.261144,1.21865 2.118597,1.25072 2.38125,0 h -2.38125 m -17.727084,0.26459 -0.264583,0.26458 0.264583,-0.26458 m 5.291667,0 -0.264583,0.26458 v 0.52917 l 1.5875,0.79375 v -0.26459 l -1.058334,-1.05833 0.529167,0.26458 -0.79375,-0.52916 m 14.2875,0.0882 c 0.204631,0 0.04237,0.13171 -0.08819,0.0882 l 0.08819,-0.0882 m 30.691669,-0.0882 v 0.79375 h 0.26458 l -0.26458,-0.79375 m 40.48125,0 -0.52917,1.05833 1.05834,0.52917 h -0.79375 v 0.26458 c 1.06766,-0.0499 1.37789,-0.57325 1.5875,-1.5875 h -0.26459 l -0.26458,1.05833 -0.79375,-0.52916 v -0.79375 m -96.57292,0.26458 -2.645833,3.43958 h -0.264583 l 2.38125,-3.43958 H 47.6688 m 108.12639,0.17639 -0.0882,0.17639 0.0882,-0.17639 m 0.61736,-0.0882 0.0882,0.0882 c -0.13058,0.0435 -0.2928,-0.0882 -0.0882,-0.0882 m 0.79375,0.17638 -0.26458,0.26459 0.26458,-0.26459 m -25.13541,0.26459 0.26458,0.26458 -0.26458,-0.26458 m -83.608339,0.26458 0.529166,0.26458 v 0.26459 l -0.529166,-0.52917 m 55.562499,0 c 0,4.471789 -1.37569,9.116839 -5.027079,11.993829 -1.24678,0.98235 -5.344863,2.13974 -5.915363,3.46285 -0.758901,1.76007 1.120708,5.10908 1.682028,6.76831 h 0.264583 l -1.5875,-6.61458 c 6.272642,-0.92636 13.459031,-8.94401 10.583331,-15.610409 m -58.7375,0.52917 v 0.26458 h -1.058333 l 1.058333,-0.26458 m 12.170834,-0.26459 c -0.211017,1.28173 0.284435,1.87789 1.5875,1.5875 l -1.5875,-1.5875 m 89.164586,0 c -2.78233,1.3456 0.59484,2.69157 0,0 m 7.40833,0 -0.52916,0.52917 v -0.52917 h 0.52916 m -96.043749,0.26459 0.264583,1.32291 h -0.264583 v -1.32291 m 13.229167,0 v 0.52916 h 1.322917 l -1.322917,-0.52916 m 61.383332,0 -1.85248,1.85208 c -0.49804,0.49221 -0.98462,0.999909 -1.58587,1.367829 -0.46394,0.28388 -2.52052,2.39794 -0.57409,2.05583 1.03666,-0.1822 4.27224,-4.272179 4.01244,-5.275739 m -19.57916,0.26458 -2.91042,10.054159 c 0.99823,-0.21282 1.02373,-1.21911 1.32292,-2.11667 0.5645,-1.69352 2.95782,-6.529879 1.5875,-7.937489 m 33.60208,0 -1.05833,1.05833 0.26458,-1.05833 h 0.79375 m 11.90625,0 -0.26458,0.26458 0.26458,-0.26458 m -8.46667,0.79375 v 1.587499 h -0.26458 l 0.26458,-1.587499 m -112.183333,0.26458 1.058333,1.587499 -1.058333,-1.587499 m 115.887503,0 -0.26458,0.26459 0.26458,-0.26459 m -114.564587,0.26459 0.264584,0.52916 -0.264584,-0.52916 m 7.975677,0.16475 c 1.597211,-0.6262 2.338375,1.801929 0.741282,2.305919 -1.46059,0.46091 -2.0821,-1.780249 -0.741282,-2.305919 m 7.105574,-0.16475 v 0.79375 h -0.264583 l 0.264583,-0.79375 m 16.404167,0 0.79375,0.79375 c -0.266989,1.265619 0.06765,1.673749 1.322917,1.852079 -0.03821,1.01802 1.378828,2.22527 1.608324,0.77007 0.08843,-0.56073 -3.071938,-3.128679 -3.724991,-3.415899 m 85.223399,0.11984 c 1.60535,-0.42518 2.27777,1.852099 0.73822,2.350829 -1.50379,0.48714 -2.3643,-1.920169 -0.73822,-2.350829 m -83.635899,0.14474 v 0.26458 h 1.322917 l -1.322917,-0.26458 m 60.854169,0 c -0.80189,1.052449 -1.7112,1.975419 -2.64583,2.910419 -0.61403,0.61426 -1.21513,1.24694 -1.85209,1.83759 -0.59111,0.54814 -1.69726,1.00491 -2.0938,1.70672 -0.35581,0.62975 0.25891,1.40437 0.95769,1.11978 0.66003,-0.26882 0.98842,-1.48847 1.43969,-2.01826 1.1604,-1.36233 4.65643,-3.546 4.19434,-5.556249 m 8.46667,0 -0.26459,0.26458 0.26459,-0.26458 m 23.28333,0 -0.52917,0.52917 0.52917,-0.52917 m -38.36458,0.26458 -0.26459,0.793749 h -0.52916 l -0.26459,-0.793749 h 1.05834 m 26.9875,0 -0.26459,0.26459 0.26459,-0.26459 m 12.17083,0 -0.52917,0.529169 0.52917,-0.529169 m -125.94167,0.26459 0.79375,1.322909 H 40.260467 L 39.7313,99.766001 m 22.401391,0.17638 -0.0882,0.176399 0.0882,-0.176399 m 79.992359,-0.17638 v 0.529159 l -0.52916,-0.529159 h 0.52916 m 0.52917,0 0.52917,0.793749 -0.52917,-0.793749 m -1.5875,0.264579 -0.26458,0.26458 0.26458,-0.26458 m 23.28333,0 -0.52916,0.52917 0.52916,-0.52917 m 3.43959,0 -0.26458,0.26458 0.26458,-0.26458 m -124.177785,0.44097 -0.08819,0.17639 0.08819,-0.17639 m 106.450695,-0.17639 v 0.79375 h -0.26458 l 0.26458,-0.79375 m -112.977083,0.26459 -0.264584,0.26458 0.264584,-0.26458 m 24.341667,0 -0.79375,0.79375 0.264584,-0.79375 h 0.529166 m 10.318751,0 0.264583,0.52916 h -0.529167 l 0.264584,-0.52916 m 81.491665,0 -0.26458,0.26458 0.26458,-0.26458 m 5.55625,0 -0.26458,0.26458 0.26458,-0.26458 m -113.50625,0.26458 0.79375,2.11667 -1.058333,0.52916 0.264583,-2.64583 m 16.933334,0 -0.264583,0.26458 0.264583,-0.26458 m 79.375006,0 0.26458,0.52917 -0.26458,-0.52917 m 1.32291,0 v 0.52917 l -0.52916,-0.52917 h 0.52916 m 20.90209,0 -0.52917,0.52917 0.52917,-0.52917 m -119.32709,0.26458 -0.264583,0.26459 0.264583,-0.26459 m 99.21875,0 0.26459,0.79375 -0.26459,-0.79375 m 22.75417,0 -0.79375,0.79375 0.79375,-0.79375 m -106.097919,0.2646 v 0.52916 h -0.529167 l 0.529167,-0.52916 m 3.96875,0 -1.322917,7.14375 h -0.264583 c 0,-2.61608 -0.240953,-5.03741 1.5875,-7.14375 m 64.558339,0 -1.05834,1.05833 1.05834,-1.05833 m 10.84791,0 c 2.00878,4.29742 8.08424,6.62903 9.12037,11.1125 0.69834,3.02184 -1.28884,5.60119 -1.71203,8.46667 h -0.26459 v -5.55625 c 1.97366,-1.01731 0.87267,-2.53594 -0.52916,-3.43959 l 0.52916,-1.32291 c -1.219,-0.6044 -1.83506,-1.02315 -3.175,-0.52917 l -0.79375,-1.5875 c -2.69891,0.7215 -3.7898,-5.13883 -3.175,-7.14375 m -77.258332,0.26458 -0.264584,0.26458 0.264584,-0.26458 m 91.281252,0 -0.26458,0.26458 0.26458,-0.26458 m -107.420836,0.26458 -0.264584,0.26459 0.264584,-0.26459 m 12.7,0 -0.264583,0.26459 0.264583,-0.26459 m 2.116667,0 -0.264583,0.26459 0.264583,-0.26459 m 12.964584,0 -0.264584,1.05834 -0.79375,-0.79375 1.058334,-0.26459 m 67.468755,0 0.26458,0.52917 -0.26458,-0.52917 m 25.13541,0 -0.52916,0.52917 0.52916,-0.52917 m -22.48958,0.26459 0.26458,0.52916 -0.26458,-0.52916 m 9.26042,0 -0.26459,0.26458 0.26459,-0.26458 m -94.720839,0.26458 -0.264583,0.26458 0.264583,-0.26458 m 1.852083,0 -0.79375,0.79375 0.79375,-0.79375 m 1.058334,0 -0.529167,0.52917 0.529167,-0.52917 m 8.995833,0 1.058334,0.52917 -1.058334,-0.52917 m 61.383339,0 1.32291,0.52917 -1.32291,-0.52917 m 33.86666,0 -0.79375,0.79375 0.79375,-0.79375 m -115.358333,0.26458 -0.264583,0.26459 0.264583,-0.26459 m 94.985423,0 -0.26459,0.26459 0.26459,-0.26459 m -98.68959,0.35278 c 0.204621,0 0.04238,0.13171 -0.08819,0.0882 l 0.08819,-0.0882 m 1.587501,0 c 0.204614,0 0.04238,0.13171 -0.0882,0.0882 l 0.0882,-0.0882 m 8.202083,0.44097 -1.852083,5.29167 c -0.811633,-1.93421 -0.407184,-4.8652 1.852083,-5.29167 m 89.429166,0 -0.26458,0.26459 0.26458,-0.26459 m 18.52084,0 -0.26459,0.26459 0.26459,-0.26459 m -104.510422,0.52917 -0.529167,0.52917 0.529167,-0.52917 m 10.31875,0 v 0.52917 h 1.322917 v -0.52917 h -1.322917 m 61.118752,0.26458 v 0.26459 h 1.85208 v -0.52917 l -1.85208,0.26458 m 14.81667,-0.26458 -0.26459,0.26458 0.26459,-0.26458 m -16.13959,0.26458 0.26459,0.26459 -0.26459,-0.26459 m -69.849999,0.52917 -1.058333,1.05834 1.058333,-1.05834 m 1.852083,0 v 3.70417 h -0.264583 l 0.264583,-3.70417 m -37.306251,0.52917 -0.264583,0.26458 0.264583,-0.26458 m 2.910417,0 0.264583,0.52917 -0.264583,-0.52917 m 140.22917,0 -0.26458,0.26458 0.26458,-0.26458 m 3.70417,0 v 0.52917 h -0.52917 v -0.52917 h 0.52917 m 0.79375,0 v 0.52917 h -0.52917 v -0.52917 h 0.52917 m 0.52917,0.0882 c 0.20462,0 0.0424,0.13171 -0.0882,0.0882 l 0.0882,-0.0882 m 0.97014,0.0882 -0.0882,0.17639 0.0882,-0.17639 m 0.52917,0 -0.0882,0.17639 0.0882,-0.17639 m 1.4111,-0.17639 v 0.52917 h -0.79375 v -0.52917 h 0.79375 m -146.57917,0.26458 -0.264584,0.26459 0.264584,-0.26459 m 98.425,0.26459 v 0.52916 l -1.05833,0.26459 v -1.05834 l 1.05833,0.26459 m 42.06876,-0.26459 -0.26459,0.26459 0.26459,-0.26459 m -108.743759,0.26458 c -0.0032,1.14914 0.07767,2.73421 -0.941355,3.53125 -1.235882,0.96666 -3.289346,0.0503 -2.762812,2.55416 -1.546902,0.9207 -2.297344,2.32762 -0.529167,3.43959 l 0.264584,5.82083 h -0.264584 c -1.006939,-2.9765 -2.920697,-6.89481 -1.477053,-10.05417 1.022943,-2.23867 3.737179,-3.94265 5.710387,-5.29166 m 8.995834,0 v 0.26458 h 1.322916 l -1.322916,-0.26458 m 61.383335,0 0.26458,0.26458 -0.26458,-0.26458 m 0.79375,0 v 0.26458 l 1.5875,0.26458 -1.5875,-0.52916 m 44.18542,0 -0.26458,0.26458 0.26458,-0.26458 m -150.28334,0.26458 -0.264584,0.26458 0.264584,-0.26458 m 0.705555,0.17639 -0.08819,0.17639 0.08819,-0.17639 m 150.900705,-0.17639 v 0.52917 h -0.52917 l 0.52917,-0.52917 m -149.754177,0.26458 v 0.79375 l -0.529167,-0.26458 v -0.26458 l 0.529167,-0.26459 m 0.79375,0 -0.264583,0.26459 0.264583,-0.26459 m 0.440972,0.17639 -0.08819,0.17639 0.08819,-0.17639 m 1.322917,0 -0.0882,0.17639 0.0882,-0.17639 m 146.138198,-0.17639 v 0.52917 h -0.52916 v -0.52917 h 0.52916 m -150.54792,0.26459 -0.264584,0.26458 0.264584,-0.26458 m 5.291667,0.0882 0.08819,0.0882 c -0.130577,0.0435 -0.29281,-0.0882 -0.08819,-0.0882 m 36.777084,6.79097 4.233334,-3.175 c -0.03883,2.38267 3.073012,-0.893 -0.529167,-0.26458 0.510596,-0.65698 1.756716,-1.54807 1.872907,-2.38942 0.109179,-0.79058 -0.921471,-1.15156 -1.435611,-0.62083 -0.57113,0.58957 -0.168409,1.74415 -0.6243,2.48108 -0.924806,1.49492 -2.501604,2.52705 -3.517163,3.96875 m 102.922919,-6.87916 -0.26458,0.26458 0.26458,-0.26458 m 1.05834,0.0882 c 0.20462,0 0.0424,0.13172 -0.0882,0.0882 l 0.0882,-0.0882 m -143.404177,0.17639 -0.264583,0.26458 0.264583,-0.26458 m 1.322917,0 -0.264584,0.26458 0.264584,-0.26458 m 2.645833,0 v 0.52917 h -0.529166 l 0.529166,-0.52917 m 0.529167,0.0882 c 0.204622,0 0.04237,0.13171 -0.08819,0.0882 l 0.08819,-0.0882 m 1.058333,-0.0882 -0.264583,0.79375 h -0.264583 l 0.529166,-0.79375 m 5.027084,0 -0.264584,0.26458 0.264584,-0.26458 m 14.552084,0 -0.264584,0.26458 0.264584,-0.26458 m 115.358339,0 -0.26458,0.26458 0.26458,-0.26458 m 5.55625,0 -0.26458,0.26458 0.26458,-0.26458 m -147.372924,0.26458 -0.264583,0.26459 0.264583,-0.26459 m 4.497917,0 -0.264583,0.26459 0.264583,-0.26459 m 3.439584,0 v 0.26459 l -0.79375,0.26458 0.79375,-0.52917 m 12.170833,0 -0.264583,0.26459 0.264583,-0.26459 m 25.929168,0 -1.058333,0.52917 1.058333,-0.52917 m -37.394445,0.44097 -0.0882,0.1764 0.0882,-0.1764 m 0.79375,0 -0.08819,0.1764 0.08819,-0.1764 m 2.20486,-0.17638 -0.264583,0.26458 0.264583,-0.26458 m 30.691668,0 v 0.52916 h 1.5875 v -0.52916 h -1.5875 m 62.706249,0 v 0.52916 h 1.5875 v -0.52916 h -1.5875 m 39.15834,0 -0.26458,0.26458 0.26458,-0.26458 m 0.79375,0 -0.26458,0.26458 0.26458,-0.26458 m 0.52917,0 -0.26459,0.26458 0.26459,-0.26458 m -134.93751,0.26458 -0.264583,0.26458 0.264583,-0.26458 m 117.21042,0.52917 -0.26458,0.26458 0.26458,-0.26458 m 2.38125,0 -0.26458,0.26458 0.26458,-0.26458 m -2.91042,0.52916 -0.26458,0.26459 0.26458,-0.26459 m -22.75416,0.52917 v 0.26458 h 2.64583 v -0.52916 l -2.64583,0.26458 m 22.225,-0.26458 -0.26459,0.26458 0.26459,-0.26458 m -84.931255,0.26458 v 0.26458 h 1.322916 l -1.322916,-0.26458 m -21.637446,0.46322 c 0.9513,-0.27069 1.341365,1.18956 0.407695,1.43337 -0.919157,0.24001 -1.345435,-1.16652 -0.407695,-1.43337 m 2.234666,-0.0222 -0.08819,0.17639 0.08819,-0.17639 m 12.259029,-0.17639 v 0.26459 0.52916 0.26459 l -4.233333,2.11666 0.529167,-2.38125 c 1.36412,0.38847 2.208509,0.28167 3.175,-0.79375 h 0.529166 m 80.168756,0 v 0.26459 h -0.79375 l 0.79375,-0.26459 m 11.64166,0 -0.26458,1.05834 h -0.26458 l 0.52916,-1.05834 m 1.87679,0.24376 c 0.87889,-0.13978 1.09511,1.22461 0.21518,1.36457 -0.87886,0.13978 -1.09514,-1.22461 -0.21518,-1.36457 m 10.38224,-0.0674 0.0882,0.17639 -0.0882,-0.17639 m -23.90069,0.35278 v 0.52917 l -0.52917,-0.52917 h 0.52917 m -68.527089,0.26458 -1.058333,0.79375 1.058333,-0.79375 m 71.437499,0 -0.26458,1.32292 v 0.26458 l 1.05833,1.5875 -2.64583,-2.38125 v -0.26458 l 1.5875,0.79375 0.26458,-0.79375 h -0.79375 l 0.79375,-0.52917 m -76.464582,0.52917 v 0.26458 l 1.058333,-0.26458 h -1.058333 m -6.614584,0 -0.264583,0.26458 0.264583,-0.26458 m 69.585416,0 v 0.26458 l 3.175,0.26459 v -0.52917 h -3.175 m -81.844445,0.44097 -0.08819,0.17639 0.08819,-0.17639 m 8.819446,-0.17639 0.264583,0.26459 -0.264583,-0.26459 m 95.249999,0 -0.26458,0.26459 0.26458,-0.26459 m -104.510416,0.79375 -0.529167,0.52917 0.529167,-0.52917 m 10.054167,0 -0.529167,0.52917 0.529167,-0.52917 m 23.547917,0 c 0,3.68957 -0.517143,8.1413 0.793751,11.64167 h 0.264583 c -0.616762,-3.32212 -1.046916,-8.35565 -0.264583,-11.64167 h -0.793751 m 52.387502,1.05834 c -0.79333,-0.60104 -6.75313,-1.36601 -5.74488,0.41157 0.29034,0.5119 4.80235,-0.30796 5.74488,-0.41157 m -88.106253,-0.79375 -0.264583,0.26458 0.264583,-0.26458 m 24.606251,0 c -1.446084,1.17762 -3.676362,2.6702 -4.233333,4.49791 1.380903,-0.71636 4.268643,-2.82867 4.233333,-4.49791 m 12.347224,0.0882 0.176386,0.0882 -0.176386,-0.0882 m 46.390278,0.17639 0.26458,0.26458 v 0.52917 l -0.26458,0.26458 h -0.52917 l -0.26458,-0.26458 v -0.52917 l 0.26458,-0.26458 h 0.52917 m -99.218753,0.26458 v 0.52917 H 31.00005 l 0.529167,-0.52917 m 30.162501,0 -0.529167,3.175 c -1.780548,-0.99899 -1.444986,-2.77192 0.529167,-3.175 m 80.962502,3.175 -0.52917,-3.175 c 1.94725,0.39732 2.6599,2.40817 0.52917,3.175 M 28.6188,112.99518 v 0.26458 l -1.852084,0.26458 1.852084,-0.52916 m 1.5875,0 v 0.26458 h -1.322917 l 1.322917,-0.26458 m 1.763889,0.17639 -0.0882,0.17638 0.0882,-0.17638 m 16.404166,0 -0.08819,0.17638 0.08819,-0.17638 m 9.613196,-0.17639 -0.264583,0.26458 0.264583,-0.26458 m 0.79375,0 -0.264583,0.26458 0.264583,-0.26458 m 8.202084,6.87916 c 1.824133,-1.26984 3.201819,-3.07714 4.982169,-4.36889 0.549712,-0.39885 2.580677,-0.48101 1.874333,-1.63241 -0.6611,-1.07765 -1.69552,0.34875 -2.162599,0.82315 -1.548646,1.57293 -3.966049,3.04304 -4.693903,5.17815 m 37.306255,6.08542 c 1.13114,-0.24116 1.25155,-1.90259 1.5875,-2.91042 0.95313,-2.85939 2.33065,-5.99536 2.64583,-8.99583 l 10.05417,-0.26458 -4.49792,-0.52917 -5.70998,0.27194 -1.4405,3.43223 -2.6391,8.99583 m 42.33333,-12.7 -0.26458,0.26458 0.26458,-0.26458 m -114.564587,0.79375 c 0.396534,2.6455 3.442731,5.81327 -1.057925,5.82083 h -1.852492 v -2.11666 h 3.175001 v -0.26459 h -3.175001 v -1.05833 h 2.381251 v -0.26458 H 27.0313 c -1.626321,-3.40183 3.110299,-2.30221 5.027083,-2.11667 m 25.400001,-0.52917 -0.264583,0.26459 0.264583,-0.26459 m 97.366666,0.26459 v 0.26458 c -3.03446,2.43851 -2.0247,6.89329 -6.08541,8.46667 0.44593,-2.59141 2.61954,-9.49444 6.08541,-8.73125 m -80.962499,0.26458 v 0.52917 l -0.79375,0.26458 -0.264583,-0.79375 0.264583,-0.26458 0.79375,0.26458 m 72.231249,-0.26458 0.52917,0.26458 v 0.26458 l -0.52917,-0.52916 m -88.635416,0.26458 -0.264583,0.26458 0.264583,-0.26458 m 10.847917,0 0.264584,0.26458 -0.264584,-0.26458 m 65.881249,0 v 0.52917 h 1.85209 l -1.85209,-0.52917 m -104.245834,0.52917 v 0.26458 l 0.793751,0.26458 -0.793751,-0.52916 m 1.322917,0 -0.264583,0.52916 h 0.529167 l -0.264584,-0.52916 m 123.560417,0 -1.05833,2.11666 h -0.26458 l 1.32291,-2.11666 m -127,0.26458 c 0.724564,1.11762 2.230544,0.79375 3.439583,0.79375 v -0.26458 c -1.114138,0 -3.127332,0.33849 -2.910417,-0.52917 H 27.82505 m 101.86459,1.85208 6.61458,-0.52916 c -1.53928,-1.16617 -6.53873,-1.78116 -6.61458,0.52916 m 1.32291,-0.52916 h -1.05833 l 0.26458,-0.79375 0.79375,0.79375 m 42.59813,-0.62104 c -1.01311,0.31905 -1.53916,1.18321 -2.42637,1.67406 -1.94478,1.07596 -7.59133,3.72235 -4.60674,6.80425 0.91541,0.94526 2.3832,0.87203 3.59332,0.87398 2.98617,0.005 6.93567,0.66698 9.77897,-0.35564 1.65105,-0.59381 2.27643,-2.63336 1.44664,-4.13085 -1.36284,-2.45943 -4.68417,-5.84257 -7.78582,-4.8658 m -23.81271,0.0919 -0.26458,0.26458 0.26458,-0.26458 m -3.96875,0.52917 -0.26458,0.26458 0.26458,-0.26458 m 32.54375,3.43958 c 1.99374,0.1504 3.72571,2.57222 1.55239,3.98427 -1.36739,0.88842 -3.75505,0.51309 -5.30248,0.40667 -1.95306,-0.13431 -4.13848,0.28589 -6.03847,-0.0408 -1.23845,-0.21296 -2.2983,-1.46153 -1.58016,-2.72362 0.91364,-1.60566 3.21927,-2.38044 4.67859,-3.22012 2.69059,-1.54812 5.99034,-3.05448 6.69013,1.59363 M 28.6188,117.22851 h -1.058334 c 0.196009,-0.9147 0.862327,-0.9147 1.058334,0 m -3.704167,-0.52917 -0.529167,0.52917 v -0.52917 h 0.529167 m 1.5875,0 -0.264583,0.26459 0.264583,-0.26459 m 119.591667,0 -0.52916,0.52917 v -0.52917 h 0.52916 m -87.841666,0.26459 -0.264583,0.52916 h -0.264583 l -0.264584,-0.52916 h 0.79375 m 117.739586,0 0.26459,0.26458 -0.26459,-0.26458 m -104.510419,0.26458 c -1.360277,1.68702 -4.144801,3.05051 -4.497916,5.29167 1.749675,-1.2325 4.323823,-3.22869 5.027083,-5.29167 h -0.529167 m 84.402089,0 -0.26459,0.26458 0.26459,-0.26458 m 20.6375,0 1.32292,1.85208 -0.52917,-0.52916 -0.79375,-1.32292 m -140.229173,0.26458 v 0.26459 H 34.17505 l 2.116667,-0.26459 m 24.077084,0 -0.264583,0.26459 0.264583,-0.26459 m 72.495839,0 0.26458,0.26459 -0.26458,-0.26459 m 0.79375,0 v 0.26459 l 2.91041,0.26458 -2.91041,-0.52917 m -60.942365,0.35278 0.176386,0.0882 -0.176386,-0.0882 m -38.276392,0.17639 -0.264583,0.26458 0.264583,-0.26458 m 0.529167,0.0882 c 0.204621,0 0.04238,0.13173 -0.08819,0.0882 l 0.08819,-0.0882 m 9.260417,-0.0882 -0.264583,0.26458 0.264583,-0.26458 m 16.404167,0 -0.264583,0.26458 0.264583,-0.26458 m 115.887506,0 0.26458,0.26458 -0.26458,-0.26458 m -146.843757,0.52917 v 0.26458 h 3.175 l -3.175,-0.26458 m 6.085417,-0.26459 0.264583,0.52917 h -0.529166 l 0.264583,-0.52917 m -7.14375,0.26459 -0.264584,0.26458 0.264584,-0.26458 m 147.63751,0 1.05833,1.05833 -1.05833,-1.05833 m -141.022927,0.26458 -0.264583,0.26458 0.264583,-0.26458 m 31.750002,5.82083 5.291666,-4.7625 c 1.262359,0.79506 2.723009,-0.36886 1.471539,-0.88419 -1.679674,-0.69165 -6.300007,4.20502 -6.763205,5.64669 m 77.787505,-5.82083 c 1.729,2.40369 0.55253,5.90401 -1.5875,7.67292 l 0.26458,-6.61459 1.32292,-1.05833 m -115.093757,0.26458 v 0.26459 l 3.175,0.26458 v -0.52917 h -3.175 m 30.956251,1.05834 v 6.35 c -2.285463,-1.88912 -2.62899,-4.64876 -2.116666,-7.40834 l 2.116666,1.05834 m 12.964584,-1.05834 0.529167,0.79375 -1.058334,0.26459 0.529167,-1.05834 m 60.325002,0.26459 v 0.26458 h 2.91042 v -0.52917 l -2.91042,0.26459 m 36.77709,-0.26459 0.26458,0.26459 -0.26458,-0.26459 m -75.670841,0.26459 0.264583,0.26458 -0.264583,-0.26458 m 21.695831,0.26458 0.26459,4.7625 c 0.8304,-1.38624 0.54941,-3.41248 -0.26459,-4.7625 m -21.431248,0.26458 0.264584,0.26459 -0.264584,-0.26459 m 0.264584,0.52917 0.264583,0.26458 -0.264583,-0.26458 m 84.137504,0 0.52917,0.52917 -0.52917,-0.52917 m -107.156255,0.26458 0.264583,0.26459 -0.264583,-0.26459 m 61.383335,0 v 0.52917 h 3.175 l -3.175,-0.52917 m -61.912502,0.26459 0.264583,0.26458 -0.264583,-0.26458 m 59.795832,0 v 0.26458 h 1.32292 l -1.32292,-0.26458 m 48.41876,0.26458 0.26458,0.26458 -0.26458,-0.26458 m -0.52917,0.26458 0.52917,1.32292 h 0.26458 l -0.79375,-1.32292 m -137.054173,0.26459 -0.264583,0.26458 0.264583,-0.26458 m 136.525003,0 0.52917,1.32291 h 0.26458 l -0.79375,-1.32291 m -137.583336,0.26458 -0.264584,0.26458 0.264584,-0.26458 m 134.143756,0 0.26458,1.05833 h -1.05833 l -0.26458,-0.79375 h -0.26459 l 0.52917,1.32292 0.52917,-0.52917 0.26458,0.52917 h 0.26458 v -0.52917 l 0.79375,0.52917 -1.05833,-1.5875 m 0.79375,0 1.05833,1.5875 -1.05833,-1.5875 m 1.32292,0 0.79375,1.5875 h 0.26458 l -1.05833,-1.5875 m 0.79375,0 0.52916,1.32292 h 0.26459 l -0.79375,-1.32292 m -137.583343,0.26458 -0.264583,0.26459 0.264583,-0.26459 m 92.868753,0.26459 v 0.26458 h 3.175 l -3.175,-0.26458 m 33.95486,-0.0882 0.0882,0.17639 -0.0882,-0.17639 m 1.76389,-0.17639 1.05834,1.32292 -1.05834,-1.32292 m 1.5875,0 0.26459,0.26459 -0.26459,-0.26459 m 1.05834,0 c 0.15071,0.47726 0.42526,1.64126 0.79375,0.79375 l 0.79375,0.52917 -0.52917,-1.05833 -0.52917,0.52916 -0.52916,-0.79375 m 1.32291,0 0.52917,1.32292 h 0.26458 l -0.79375,-1.32292 m 3.70417,0 0.52917,1.32292 h 0.26458 l -0.79375,-1.32292 m -106.891672,0.26459 v 0.26458 h 0.79375 l -0.79375,-0.26458 m 1.058333,0 0.264584,0.26458 -0.264584,-0.26458 m 60.324999,0 v 0.26458 h 1.5875 l -1.5875,-0.26458 m 35.45417,0 0.79375,1.05833 -0.79375,-1.05833 m 1.05834,0 0.26458,1.05833 h 0.26458 l -0.52916,-1.05833 m 0.52916,0 1.05834,1.05833 -1.05834,-1.05833 m 1.85209,0 0.79375,1.05833 -0.79375,-1.05833 m 1.05833,0 0.26458,1.05833 h 0.26459 l -0.52917,-1.05833 m -113.241672,5.82083 -6.085417,-1.32292 v -0.26458 l 0.79375,-0.52917 -10.318751,3.43959 c 1.028244,-3.10116 5.133432,-7.29694 8.731251,-6.69175 2.955353,0.49711 5.302575,2.98538 6.879167,5.36883 m 101.864582,0.79375 c -5.81988,-1.96887 -9.19952,-2.20735 -15.08125,-0.52917 1.69188,-3.03529 5.86756,-7.14375 9.7855,-5.39435 1.68921,0.75424 4.34969,4.3303 5.29575,5.92352 m -3.175,-6.08542 -0.26458,0.26459 0.26458,-0.26459 m 2.11667,0 -0.26458,0.26459 0.26458,-0.26459 m -6.61458,0.26459 0.26458,0.79375 -0.79375,-0.52917 -0.26458,0.26458 1.05833,0.79375 -0.26458,-1.32291 m -106.097923,0.26458 -1.852083,1.5875 1.852083,-1.5875 m 66.939583,0 -0.52916,0.52917 0.52916,-0.52917 m -60.324999,1.85208 c -1.148025,-3.26516 -3.702132,1.08206 0,0 m 80.168749,-1.32291 v 0.26458 c 1.20792,0.32675 2.67058,0.51847 3.70417,-0.26458 h -3.70417 m 17.99167,-0.26459 0.79375,0.79375 v -0.26458 l -0.79375,-0.52917 m -82.814585,0.52917 v 0.26458 l 2.645833,-0.26458 h -2.645833 m -15.875001,0.26458 v 0.52917 c -0.830041,0.13079 -1.058234,0.01 -1.322917,-0.79375 l 1.322917,0.26458 m 3.96875,-0.17639 c 0.204615,0 0.04239,0.13173 -0.08819,0.0882 l 0.08819,-0.0882 m 56.356256,-0.0882 -1.05834,1.05833 1.05834,-1.05833 m -60.942368,0.61736 0.17639,0.0882 -0.17639,-0.0882 m 100.365278,-0.0882 -1.5875,0.26458 0.26459,1.32292 h 0.26458 l -0.26458,-0.79375 h 2.11666 l -0.79375,-0.79375 m 5.29167,0 -0.26458,0.26458 0.26458,-0.26458 m -40.48125,0.26458 -1.05833,4.23333 c 1.55585,-0.89988 1.98721,-2.68272 1.05833,-4.23333 m -5.55625,0.26458 -1.05833,1.05834 1.05833,-1.05834 m 41.01042,0 -0.26459,0.26459 0.26459,-0.26459 m 5.55625,0 -0.26459,0.26459 0.26459,-0.26459 m -113.77084,0.26459 -1.058333,1.05833 1.058333,-1.05833 m 22.754168,0.79375 3.704167,-0.52917 c -1.124302,-0.47177 -2.992001,-0.56933 -3.704167,0.52917 m 67.468752,-0.79375 v 0.26458 l 2.11667,0.26458 v -0.52916 h -2.11667 m -91.545836,0.26458 -0.264584,0.26458 0.264584,-0.26458 m 115.358336,0 0.26458,0.52917 -0.26458,-0.52917 m -98.954169,0.52917 0.264583,0.52916 -0.264583,-0.52916 m 27.781251,0 c -1.778299,2.27781 -3.490222,2.12287 -6.085417,1.5875 v 0.26458 c 1.508597,0.49072 7.389488,1.63571 6.085417,-1.85208 m 46.037498,0 c -1.22454,1.59263 -2.248,2.11097 -4.23333,2.11666 v 0.26459 c 2.16012,0.27275 4.46229,0.30662 4.7625,-2.38125 h -0.52917 m -89.958333,0.52916 -1.852083,3.43959 H 41.3188 l 2.116667,-3.43959 m 16.668751,0.26459 0.264583,0.52916 -0.264583,-0.52916 m 7.14375,0 v 0.26458 l 3.704167,0.26458 v -0.52916 h -3.704167 m 7.14375,1.32291 v 0.26459 c 2.266278,0 4.029066,-0.008 6.085417,-1.05834 l -6.085417,0.79375 m 46.302082,-0.26458 v 0.26458 c 1.95285,0.82403 4.72948,0.77639 5.82084,-1.32291 l -5.82084,1.05833 m 14.55209,-1.05833 v 0.52916 h 1.32291 v -0.52916 h -1.32291 m 8.99583,0 -0.26458,0.26458 0.26458,-0.26458 m 16.13958,0.26458 -0.26458,0.26458 0.26458,-0.26458 m -79.639582,0.26458 0.264584,0.26459 -0.264584,-0.26459 m 46.302082,0 v 0.26459 l 1.85209,0.52916 v -0.26458 l -1.85209,-0.52917 m 24.34167,0 c -0.72377,0.9088 -2.06278,1.27329 -3.175,1.05834 l 3.175,-1.05834 m -95.514586,1.05834 -3.175,-0.52917 3.175,0.52917 m 4.7625,-0.79375 -0.264583,0.26458 0.264583,-0.26458 m 42.068756,7.40833 h 0.26458 c 9e-5,-0.82358 -0.21728,-2.10925 0.42423,-2.75077 0.81563,-0.81563 2.74909,-0.37347 3.8091,-0.54039 2.46436,-0.38807 6.0747,-1.91293 7.40834,-4.11717 l -8.46667,3.50471 -3.6568,0.62369 0.21722,3.27993 m 12.43541,-7.40833 0.52917,0.52916 -0.52917,-0.52916 m 46.0375,0.26458 1.05834,1.5875 h -0.26459 l -0.79375,-1.5875 m -8.46666,0.26458 1.32291,1.32292 v 0.26458 l -1.32291,-0.79375 -0.52917,0.79375 0.52917,-1.5875 m -100.806256,0.26459 0.79375,1.5875 -1.5875,-0.26459 v -0.26458 l 0.529167,-0.52917 -2.910417,1.05834 -0.264583,-1.05834 c 1.286616,0.67491 2.181946,-0.13202 3.439583,-0.52916 m 15.875001,0 v 0.26458 l 3.704166,0.26458 -3.704166,-0.52916 m 66.410415,0.26458 v 0.26458 h 1.85209 l -1.85209,-0.26458 m -80.697916,0 0.264583,0.52917 -0.264583,-0.52917 m 98.689586,0 -0.26458,0.26458 0.26458,-0.26458 m -118.00417,0.26458 -0.264583,0.26459 0.264583,-0.26459 m 121.17917,0 0.52917,0.79375 h -0.26459 l -0.52916,-0.52916 0.26458,-0.26459 m 15.08125,0 -0.26458,0.26459 0.26458,-0.26459 m -122.237503,0.26461 v 0.79375 h -0.264583 l 0.264583,-0.79375 m 103.716673,0 -1.85209,1.32291 v -0.26458 l 1.85209,-1.05833 m 2.91041,0 -0.52916,0.52916 0.52916,-0.52916 m 16.13959,0 0.79375,0.26458 v 0.26458 c -0.59262,0.14865 -1.11645,0.19036 -0.79375,-0.52916 m -137.318757,0.26458 -0.264583,0.26458 0.264583,-0.26458 m 0.529167,0 -0.264583,0.26458 0.264583,-0.26458 m 59.002086,25.13542 c -3.493658,2.13441 -6.506596,-1.1094 -10.054168,-1.5875 l 2.116667,5.02708 c -1.7519,0.14988 -2.588892,-1.78879 -3.708046,-2.90654 -2.175445,-2.17272 -5.159537,-3.7996 -7.669038,-5.56013 l 0.529167,-2.11666 -0.79375,1.5875 -1.322917,-0.52917 0.79375,-2.11667 -0.79375,0.26459 0.264584,0.52916 -1.322917,0.79375 c 0.0331,3.99753 1.843662,7.87299 5.027084,10.31875 v 0.26459 c -5.105531,-1.47081 -4.77303,-5.33696 -6.469838,-9.525 -1.124378,-2.77519 -2.862107,-4.99803 -5.17183,-6.87917 l -0.264583,3.70417 c -1.294123,-0.37856 -0.971158,-1.79907 -1.249423,-2.91042 -0.733612,-2.92991 -2.515355,-4.79139 -3.77766,-7.40833 h -0.264584 l -0.79375,6.35 -1.5875,-0.26459 0.79375,-1.85208 v -0.26458 c -0.779555,-0.69193 -0.270429,-1.69113 -0.319909,-2.64584 -0.09121,-1.75983 -0.22055,-4.0397 -1.532174,-5.29166 0.695411,-2.77307 3.298317,-2.65051 5.245731,-0.74476 3.650698,3.5726 5.204059,8.62172 9.306353,11.99914 6.909502,5.68861 15.475909,7.37852 23.018751,11.76437 m 51.593754,-8.46667 c 0.98882,-3.72808 0.76872,-6.31034 0.26458,-10.05417 -2.4913,1.76976 -4.03113,4.94208 -4.42135,7.9375 -0.52904,4.06104 0.68598,6.83143 -3.51615,9.26042 1.84879,-3.5145 3.12612,-7.10016 2.38125,-11.1125 -2.36378,1.78263 -4.34522,4.06454 -5.37231,6.87917 -0.61125,1.67508 -0.97007,5.23085 -2.30061,6.35 l 0.26459,-0.79375 -0.79375,-0.26459 v -0.26458 h 0.79375 v -0.26458 l 0.52916,-5.82084 c -1.81679,0.76162 -2.93212,2.10956 -4.49791,3.23094 -2.94698,2.11057 -5.85723,3.40871 -7.9375,6.55865 l -1.05834,-0.26459 1.5875,-4.49791 -6.35,2.27794 -4.49791,-0.16128 c 1.62671,-1.31421 3.92196,-1.88733 5.82083,-2.72749 6.02344,-2.66508 12.683,-4.79517 17.72708,-9.22755 2.68823,-2.36222 4.97791,-5.09392 6.82527,-8.15329 1.19689,-1.98213 2.33282,-4.77527 4.8164,-5.44172 1.04456,-0.2803 2.64801,-0.25175 3.0223,0.97156 0.40295,1.31701 -0.92515,3.30336 -1.09468,4.73474 -0.49957,4.218 1.66317,7.73691 -2.1922,10.84792 M 96.352136,130.19309 c -1.546724,2.43211 -3.059181,2.91042 -5.820834,2.91042 0.234207,3.48015 4.480242,3.32065 6.879167,2.11667 0.859822,2.52752 4.371811,4.61188 6.350001,2.11666 -2.13508,-1.64161 -2.38125,-3.2648 -2.38125,-5.82083 l -5.027084,-1.32292 m -45.508335,0.26459 v 0.26458 l -1.058334,0.26458 1.058334,-0.52916 m 0.529166,0 -0.264583,0.26458 0.264583,-0.26458 m 2.38125,0.0882 0.0882,0.0882 c -0.130577,0.0435 -0.292813,-0.0882 -0.0882,-0.0882 m 14.816668,-0.0882 c 0.290284,1.35464 3.187249,0.91155 4.233333,0.52916 v -0.26458 l -4.233333,-0.26458 m 16.66875,14.2875 h 1.058334 c -0.897491,-2.3423 -1.264018,-7.67838 -0.302146,-10.05417 0.420481,-1.03857 3.474796,-2.78923 3.220314,-3.63536 -0.56792,-1.88826 -3.552888,2.7541 -3.781129,3.37078 -1.042446,2.81656 -0.195373,7.32105 -0.195373,10.31875 m 46.037505,-13.75834 v 0.26459 h 1.5875 v 0.26458 h -1.5875 c 1.2461,1.73505 2.50692,-1.46759 0,-0.52917 m -82.902785,-0.0882 -0.08819,0.17637 0.08819,-0.17637 m 9.612174,0.10411 c -0.974278,0.1579 -1.078362,1.75233 0,1.44949 0.790234,-0.22194 1.064713,-1.62205 0,-1.44949 m 15.346856,-0.28051 v 0.52917 l 2.645833,-0.26459 -2.645833,-0.26458 m 3.35139,0.0882 0.176386,0.0882 -0.176386,-0.0882 m 11.994444,-0.0882 0.264583,0.26458 v 0.52917 l -0.264583,0.26458 h -0.529167 l -0.264583,-0.26458 v -0.52917 l 0.264583,-0.26458 h 0.529167 m 39.422921,0 0.26458,0.26458 -0.26458,-0.26458 m 0.52916,0 v 0.26458 h 1.32292 l -1.32292,-0.26458 m 4.7625,0 v 0.26458 h 2.11667 l -2.11667,-0.26458 m 11.64167,0.26458 1.85208,1.5875 c 0.26211,-1.3884 -0.54684,-1.90472 -1.85208,-1.5875 m 4.7625,-0.26458 v 0.52917 l -0.52917,-0.52917 h 0.52917 m 21.16667,0 -0.26458,0.26458 0.26458,-0.26458 m -121.443756,0.26458 -0.79375,0.79375 0.79375,-0.79375 m 33.602084,12.7 h 1.058334 c 0,-3.05731 -0.229007,-6.2135 0.01531,-9.26041 0.06464,-0.80607 0.652572,-1.57736 0.615321,-2.36553 -0.03539,-0.74885 -0.964783,-1.18738 -1.402737,-0.45567 -0.44132,0.73733 0.29955,2.07687 0.308065,2.92001 0.03013,2.98436 0.78033,6.42687 -0.594292,9.1616 m 62.706251,-12.7 0.79375,1.32292 -0.79375,-1.32292 m -87.312501,0.26459 c -0.227579,0.81514 -0.50475,0.93185 -1.322917,0.79375 l 1.322917,-0.79375 m 69.056251,3.175 3.43958,-2.91042 c -1.53273,-0.20414 -2.72094,1.76151 -3.43958,2.91042 m -79.375002,-2.91042 -1.322917,1.5875 c 0.964868,0.1165 0.994673,0.95902 1.058334,1.85208 H 47.6688 l -1.322916,-2.38125 1.852083,-1.05833 m 36.247918,0 0.264584,0.26458 v 0.52917 l -1.058334,0.26458 0.264584,-1.05833 h 0.529166 m -33.837882,0.42934 c 1.820032,-0.6696 2.828903,2.22554 1.000966,2.78506 -1.660259,0.50821 -2.729192,-2.14923 -1.000966,-2.78506 m 64.264967,-0.16476 c -0.30702,1.61895 -1.22531,2.52106 -2.91042,2.64584 v 0.52916 h 1.5875 v 1.05834 h -1.5875 v 0.52916 h 1.5875 v 1.05834 l -1.5875,0.52916 1.5875,-0.26458 v 1.05833 l -1.5875,0.26459 v 0.26458 h 1.5875 c 0.26304,1.57612 1.58148,1.32277 2.91042,1.32292 -0.32037,1.16519 -0.41545,4.20165 0.52917,5.02708 l -0.26459,-5.02708 h 1.32292 v 4.23333 h 0.26458 v -4.23333 c 1.32389,-0.001 2.47147,0.12305 2.91042,-1.32292 h 1.5875 v -0.52917 l -1.5875,0.26459 v -1.32292 h 1.5875 v -0.26458 h -1.5875 v -1.05834 c 2.71598,-0.17267 4.97021,-1.28554 7.14375,1.05834 l -1.32292,-0.52917 v 0.79375 h 1.32292 v 1.32292 h 0.52917 c 0.81927,-4.25593 -5.15281,-3.5845 -7.67292,-3.175 v -1.05834 h 1.32292 v -0.52916 h -1.5875 l -1.05834,-1.05834 v -1.5875 h -0.52916 v 1.5875 h -1.05834 v -1.5875 h -0.52916 v 1.5875 h -1.05834 l -0.52916,-1.5875 0.26458,1.5875 h -1.05833 v -1.5875 h -0.52917 m 37.59942,0.16476 c 1.68962,-0.6239 2.72159,1.94564 1.00116,2.58091 -1.68965,0.6239 -2.72155,-1.94565 -1.00116,-2.58091 m -103.745256,0.0998 -0.264583,1.5875 h -0.264584 l 0.529167,-1.5875 m 48.418752,0 -1.322917,1.32291 1.322917,-1.32291 m -51.681947,0.44098 -0.08819,0.17637 0.08819,-0.17637 m 23.636112,-0.1764 v 0.26458 l 5.291667,0.26459 -5.291667,-0.52917 m 7.672917,2.11667 0.264584,1.32291 -5.291667,-0.26458 c 0.957503,1.47693 3.783421,0.71978 5.291667,0.52917 -0.546794,1.80118 -2.469133,1.33674 -3.968751,1.05833 1.051438,1.07368 2.554431,0.79375 3.968751,0.79375 l -1.852084,1.05833 1.322917,0.79375 c 0.98792,-1.95513 1.915888,-5.18685 -0.79375,-6.08541 v -0.52917 l 0.79375,-0.52917 c -1.794581,-0.18222 -1.239601,1.87579 0.264583,1.85209 m 48.242362,-1.94027 0.0882,0.17637 -0.0882,-0.17637 m 7.58472,0.0882 v 0.26459 l 2.11667,-0.26459 h -2.11667 m 11.37709,-0.26458 c -0.21854,1.32821 0.34303,1.78789 1.5875,2.11667 0.21562,-1.3133 -0.31568,-1.85696 -1.5875,-2.11667 m 13.49375,0 -0.26459,0.26458 0.26459,-0.26458 m -98.160422,0.26458 -0.79375,1.05834 1.058333,-0.52917 -1.058333,1.32292 1.5875,-1.05834 v -0.26458 l -0.79375,-0.52917 m 64.822922,0 0.26458,0.26459 -0.26458,-0.26459 m 21.16666,1.5875 h -0.26458 l -0.26458,-1.05833 -0.79375,0.26458 0.26458,-0.79375 1.05833,1.5875 m -100.541666,-1.32288 -0.264584,0.26458 0.264584,-0.26458 m 86.165976,0.0882 0.17639,0.0882 -0.17639,-0.0882 m -85.63681,0.17639 -0.264583,0.26458 0.264583,-0.26458 m 31.485418,0 0.264584,0.26458 -0.264584,-0.26458 m 1.852084,0.52917 v 0.26458 c 1.883553,2.78439 0.387286,4.28695 0.110244,7.11435 -0.0495,0.50515 0.323434,0.48101 0.683506,0.55857 -0.01558,-1.68864 2.423039,-9.56618 -0.79375,-7.9375 m 70.820138,-0.35277 -0.0882,0.17637 0.0882,-0.17637 m -69.497222,0.0882 0.264584,0.79375 -0.264584,0.26459 -0.79375,-0.26459 0.79375,-0.79375 m 70.114582,0 -0.26458,0.26459 0.26458,-0.26459 m -95.249999,0.26459 -0.264584,0.26458 0.264584,-0.26458 m 94.191669,0 v 0.79375 h -0.26458 l 0.26458,-0.79375 m 1.85208,0 -0.26458,0.26458 0.26458,-0.26458 m -90.222916,0.26458 -1.058333,1.5875 c 0.852827,-0.3 1.570754,-0.66919 1.058333,-1.5875 m 9.789584,0 v 0.52917 h 4.497917 l -4.497917,-0.52917 m 52.916672,0.26458 v 0.26459 l 2.11666,-0.52917 -2.11666,0.26458 m 5.82083,-0.26458 v 0.52917 l 4.49792,-0.26459 -4.49792,-0.26458 m 20.90208,0 -0.26458,0.26458 0.26458,-0.26458 m -103.1875,0.26458 c -0.523108,1.92757 -0.194654,3.12767 2.116667,2.91042 l 4.233334,3.96875 -8.466667,-2.38125 c 0.998122,2.10989 2.512421,4.04631 4.497917,5.29167 v 0.26458 c -5.776481,0 -7.48357,-2.9255 -8.466667,-8.20208 l 6.085416,-1.85209 m 67.73334,0 -0.26459,0.26459 0.26459,-0.26459 m 3.43958,0 v 0.26459 h -0.79375 l 0.79375,-0.26459 m 0.52917,0 -0.26459,0.26459 0.26459,-0.26459 m 1.5875,0 -0.26459,0.26459 0.26459,-0.26459 m 5.55625,0 0.26458,0.26459 -0.26458,-0.26459 m 17.4625,0 v 1.05834 l 1.05833,0.26458 -0.52917,-0.26458 v 0.26458 l 1.05834,0.26458 -1.5875,-1.5875 m 7.9375,0 -0.26459,0.26459 0.26459,-0.26459 m 4.6743,0.1764 -0.0882,0.17638 0.0882,-0.17638 m -6.2618,0.0882 -0.26459,0.26458 0.26459,-0.26458 m -34.66042,0.26458 -0.26458,0.26458 0.26458,-0.26458 m 4.49792,0 v 0.26458 h -1.05834 l 1.05834,-0.26458 m 7.67291,0 0.26459,0.26458 -0.26459,-0.26458 m 23.54792,0 -0.26458,0.26458 0.26458,-0.26458 m 0.79375,0 0.52917,0.79375 -0.52917,-0.79375 m -103.71667,0.52917 -0.264583,0.79375 0.264583,-0.79375 m 2.116667,0 -0.264583,0.26458 0.264583,-0.26458 m 65.881253,0 -0.26458,0.26458 0.26458,-0.26458 m 39.15833,0 -0.26458,0.26458 0.26458,-0.26458 m -94.456249,1.85208 c 1.049504,-0.16724 1.481446,-0.50351 1.322917,-1.5875 l -1.322917,1.5875 m 67.468749,-1.32292 v 0.26459 c 1.30357,0.31035 3.40882,0.74267 4.23334,-0.52917 l -4.23334,0.26458 m 24.60625,-0.26458 -0.26458,0.26458 0.26458,-0.26458 m 3.70417,0 -0.26458,0.26458 0.26458,-0.26458 m -107.420836,0.35273 c 0.20462,0 0.04239,0.13173 -0.08819,0.0882 l 0.08819,-0.0882 m 6.35,-0.0882 -0.264583,0.26459 0.264583,-0.26459 m 23.018751,0 0.264583,0.52917 h 0.264584 l 0.264583,-0.52917 h -0.79375 m 63.500005,0.79375 1.05833,-0.52916 0.79375,1.32291 c -0.33422,-0.94869 -1.05608,-1.87165 -1.85208,-0.79375 m 7.67291,-0.79375 -0.52916,0.52917 v -0.52917 h 0.52916 m 3.70417,0 -0.26458,0.26459 0.26458,-0.26459 m 0.79375,0.0882 c 0.20464,0 0.0424,0.13173 -0.0882,0.0882 l 0.0882,-0.0882 m -113.24167,0.1764 c 0,3.86407 1.480599,5.29412 3.704167,8.20208 l -0.264583,0.26458 H 43.70005 v -0.79375 c -3.186237,-0.13613 -3.702566,-5.25738 -3.704166,-7.67291 h 0.529166 m 9.260417,0 v 0.52916 l -0.529166,-0.52916 h 0.529166 m 0.529167,0 -0.264583,0.26458 0.264583,-0.26458 m 11.377084,0 -0.79375,0.79375 0.264583,-0.79375 h 0.529167 m 89.958332,0 -0.26458,0.26458 0.26458,-0.26458 m 11.64167,0 -0.26458,2.91041 h -0.52917 l 0.26458,-2.91041 h 0.52917 M 51.108384,136.3667 c 0.204624,0 0.04238,0.13173 -0.08819,0.0882 l 0.08819,-0.0882 m 40.481251,-0.0882 v 0.26458 l 7.143746,1.85209 c -1.731939,-2.42967 -4.510565,-1.42001 -7.143746,-2.11667 m 59.002085,0 -0.26458,0.26458 0.26458,-0.26458 m -100.012503,0.52917 0.264584,0.52916 -0.264584,-0.52916 m 64.029173,0 -0.26459,0.26458 0.26459,-0.26458 m 26.72291,0 1.05834,1.05833 -1.05834,-1.05833 m -79.639582,0.79375 v 0.26458 l 1.058333,-0.52917 -0.79375,1.5875 1.058333,-1.85208 -1.322916,0.52917 m 61.912502,-0.26459 1.05833,1.05834 -0.26458,-1.05834 0.52917,0.52917 c 0.14094,-0.85397 -0.7038,-0.70477 -1.32292,-0.52917 m 5.82083,-0.26458 v 0.79375 l 1.32292,-0.79375 h -1.32292 m -51.593748,0.26458 v 0.26459 h 1.322916 l -1.322916,-0.26459 m 3.439583,0 v 0.26459 h 0.79375 l -0.79375,-0.26459 m 1.234724,0.0882 0.176386,0.0882 -0.176386,-0.0882 m 42.421531,0.97015 v 0.26458 l 2.64583,1.32292 -0.79375,-0.52917 0.52917,-0.52917 v -0.26458 l -1.32292,0.26458 -0.26458,-0.26458 v -0.52917 l 1.05833,-0.79375 -1.85208,1.05834 m 31.48541,-1.05834 -0.79375,0.52917 0.79375,-0.52917 m -15.875,0.26459 v 1.05833 l 0.79375,-0.26458 v 1.05833 c 0.47433,-0.85713 -0.009,-1.38311 -0.79375,-1.85208 m -53.445831,1.85208 c 2.706722,-0.20708 0.402418,-2.52309 0,0 m 17.197921,-1.32292 c -1.32429,0.98956 -2.33142,1.34858 -3.96875,1.05834 v 0.26458 c 1.01595,0.37028 5.45682,0.88804 3.96875,-1.32292 m 36.77708,0 -0.26458,0.26459 0.26458,-0.26459 m -52.652085,0.26459 -0.79375,0.79375 0.79375,-0.79375 m 10.583336,0 0.52916,0.52916 -0.52916,-0.52916 m 56.885419,0 -0.26459,0.26458 0.26459,-0.26458 m -0.79375,0.26458 -4.49792,2.64583 c 1.10366,-2.16174 2.21524,-2.51255 4.49792,-2.64583 m -92.075006,2.11667 1.322917,-1.85209 c -1.027186,0.31158 -1.243387,0.80649 -1.322917,1.85209 m 14.552084,-1.85209 v 0.52917 h 1.322917 v -0.52917 h -1.322917 m 2.910417,0 v 0.52917 h 2.38125 v -0.52917 h -2.38125 m 19.314586,0 0.264579,0.26459 -0.264579,-0.26459 m 23.547919,0 v 0.26459 h 1.32291 l -1.32291,-0.26459 m 16.93333,2.38125 c 1.34774,-3.15101 -3.26734,-1.34024 0,0 m 15.875,-2.38125 -0.26458,0.26459 0.26458,-0.26459 m -92.075002,0.26459 -0.79375,0.79375 0.264583,-0.79375 h 0.529167 m 76.464582,1.32291 c -0.87114,0.0182 -1.07261,-0.22723 -1.32291,-1.05833 l 1.32291,1.05833 m 21.96042,-1.05833 v 1.32292 h -0.26458 l 0.26458,-1.32292 m -75.406251,0.26458 -0.529167,0.52917 0.529167,5.55625 h 0.264583 l -0.264583,-6.08542 m 75.935421,0 -0.26459,0.26459 0.26459,-0.26459 m -98.13674,0.65126 c -0.699707,0.21121 -0.957802,1.63614 0,1.48623 0.958606,-0.15003 1.044603,-1.80156 0,-1.48623 m 74.58882,-0.38667 0.26458,0.26458 -0.26458,-0.26458 m -62.177085,0.52916 v 0.26459 l 1.058333,-0.26459 h -1.058333 m -11.641667,0.26459 -1.322917,0.79375 1.322917,-0.79375 m 14.022917,0 v 0.26458 h 3.439583 v -0.52917 l -3.439583,0.26459 m 8.55486,-0.0882 0.0882,0.17638 -0.0882,-0.17638 m 33.602085,0 0.0882,0.17638 -0.0882,-0.17638 m 0.44097,-0.1764 1.05834,0.26459 v -0.26459 h -1.05834 m 1.32292,0 v 0.52917 h 2.38125 v -0.52917 h -2.38125 m 14.55208,2.38125 -0.52916,-1.5875 h 0.79375 v 1.32292 c 1.34104,-1.94683 -2.52397,-1.66482 -0.26459,0.26458 m -59.002082,-1.85208 -0.264583,0.26458 0.264583,-0.26458 m 35.718752,0 v 5.02708 h 0.26458 l 0.26459,-5.02708 h -0.52917 m 4.49792,0 0.26458,1.85208 h 0.26458 V 141.041 h -0.52916 m -18.78542,11.1125 h 0.26458 c 0,-4.24595 -0.62609,-6.85002 -4.762498,-8.99583 0.376221,-1.80797 -1.514143,-2.00473 -1.34374,-0.79253 0.232471,1.65376 3.931269,3.4209 4.963799,4.76515 1.078819,1.40452 0.399789,3.40582 0.877859,5.02321 m -34.131252,-10.58333 -0.79375,1.5875 h 0.264583 l 0.529167,-1.5875 m 32.014583,0 c 0.0353,1.08213 0.13125,1.79717 1.32292,1.85208 l 2.221599,3.70437 0.15965,5.29146 h 0.52917 c -0.001,-2.5632 0.77369,-7.14375 -2.64584,-7.67291 0.14704,-1.62952 0.43719,-3.02055 -1.587499,-3.175 m 6.879169,9.26041 c 1.20083,-1.58504 0.66309,-5.65497 0.92237,-7.67169 0.0732,-0.56932 -0.12518,-1.4666 -0.89849,-1.34496 -0.66657,0.10484 -0.70399,0.83203 -0.56937,1.34496 0.66698,2.54144 0.54549,5.02756 0.54549,7.67169 m -9.525001,-8.99583 v 1.05833 l -0.79375,-1.05833 h 0.79375 m 5.027081,0 2.75077,4.49792 0.15965,5.55625 h 0.26458 c 0.46159,-1.59135 0.58263,-5.12398 -0.23743,-6.61459 -0.69176,-1.2574 -1.82907,-2.08262 -2.4084,-3.43958 h -0.52917 m 56.62084,0 0.79375,0.79375 0.26458,0.79375 0.26458,0.79375 v 1.05833 l -1.32291,-3.43958 m -76.993755,0.26458 c 0.681669,0.89141 1.624941,0.64964 2.645833,0.52917 v -0.52917 h -2.645833 m 19.314586,0.79375 -1.05834,-0.79375 1.05834,0.79375 m 6.085419,-0.79375 -0.79375,1.05834 0.26458,-1.05834 h 0.52917 m 14.81666,0 2.64584,0.52917 v -0.52917 h -2.64584 m -78.845833,0.26459 0.529167,0.52916 -0.529167,-0.52916 m 16.404167,1.05833 -1.852083,-1.05833 1.852083,1.05833 m 8.731251,-1.05833 -0.264584,1.85208 1.322917,-1.5875 -1.058333,-0.26458 m 20.902084,0 v 0.26458 h 2.116666 l -2.116666,-0.26458 m 3.175,0 v 0.26458 h 1.5875 l -1.5875,-0.26458 m 6.085417,0 0.264583,0.26458 -0.264583,-0.26458 m 11.818054,0.0882 0.17639,0.0882 -0.17639,-0.0882 m 0.88195,-0.0882 0.26458,0.26458 -0.26458,-0.26458 m 0.52916,0 v 0.26458 h 1.05834 l -1.05834,-0.26458 m 1.5875,0 v 0.26458 h 0.79375 l -0.79375,-0.26458 m 23.8125,0.52916 1.32292,1.32292 c -0.14838,-0.93331 -0.35084,-1.33952 -1.32292,-1.32292 m 21.16667,-0.26458 c 1.79287,5.60691 1.19226,11.95214 -4.23333,15.34583 l 0.52529,-4.7625 -0.31972,-3.175 1.91109,-2.64583 c -1.59573,-1.8e-4 -2.94779,0.19332 -3.43958,-1.5875 l 5.55625,-3.175 m -89.429169,0.26458 v 0.52917 h -0.529166 l 0.529166,-0.52917 m 69.056249,0 0.26459,0.79375 -0.26459,-0.79375 m -77.522916,3.70417 h -0.264583 l -1.852084,-2.91042 c 1.674107,0.19268 1.782684,1.45022 2.116667,2.91042 m 8.466667,-1.5875 1.322917,-1.32292 -1.322917,1.32292 m 20.637501,-1.32292 4.497917,0.52917 v -0.26458 l -4.497917,-0.26459 m 31.485418,0 v 0.52917 h 0.52917 v -0.52917 h -0.52917 m -12.7,0.26459 0.26458,0.26458 -0.26458,-0.26458 m 4.49792,0 v 0.26458 h 2.64583 l -2.64583,-0.26458 m 23.01875,1.85208 c 2.38779,-0.72734 -0.58157,-2.79447 0,0 m -89.693756,-1.5875 1.058333,0.26458 1.058333,0.26459 h 0.264584 l 1.058333,0.26458 c -0.725097,0.82962 -4.023741,0.5772 -3.439583,-0.79375 m 24.341667,0 v 1.05833 l -0.79375,0.26459 v 0.26458 c 0.860094,-0.28734 1.278112,-0.74929 0.79375,-1.5875 m 65.881249,0 0.52917,1.05833 -0.26458,0.26459 h -0.52917 l 0.26458,-1.32292 m -89.69375,0.52917 0.264584,0.26458 -0.264584,-0.26458 m 5.027084,0 -1.852083,0.79375 1.852083,-0.79375 m 20.133038,0.91583 c -0.879303,0.26661 -0.754484,1.91345 0.229261,1.60792 0.881108,-0.27366 0.792253,-1.91765 -0.229261,-1.60792 m 17.70238,-0.38667 c 1.150148,1.3162 5.696487,0.52917 7.408334,0.52917 v -0.26458 l -7.408334,-0.26459 m 44.714588,0 1.32291,1.85209 -1.32291,-1.85209 m -36.865285,0.35278 0.176394,0.0882 -0.176394,-0.0882 m 11.200695,-0.0882 v 0.26458 h 6.87917 l -6.87917,-0.26458 m 51.85834,0 v 1.05833 l -0.79375,-1.05833 h 0.79375 m -87.841672,0.52916 -1.058333,1.05834 0.264583,-1.32292 0.79375,0.26458 m 60.325002,2.38125 1.32292,-0.52916 -0.52917,-1.5875 c -1.2032,0.36881 -1.15961,1.01858 -0.79375,2.11666 m 19.05,-1.05833 -5.55625,1.05833 c 0.77201,-1.39712 4.85803,-3.15521 5.55625,-1.05833 m -18.78542,-0.79375 0.52917,1.32292 c -0.79704,-0.17079 -0.92552,-0.63162 -0.52917,-1.32292 m -69.409025,0.44097 -0.0882,0.17639 0.0882,-0.17639 m 1.675693,-0.17639 v 0.52917 h -0.529167 v -0.52917 h 0.529167 m 94.985422,0 v 0.52917 h -0.52917 v -0.52917 h 0.52917 m -67.733338,0.26459 v 0.26458 l 7.672919,0.26458 c -1.843518,-1.23065 -5.5272,-0.52916 -7.672919,-0.52916 m 15.345838,0 v 0.52916 l 5.82083,-0.26458 -5.82083,-0.26458 m -39.422922,0.52916 -0.264583,0.26459 0.264583,-0.26459 m 62.441672,0 1.05833,1.32292 -1.05833,-1.32292 m 29.63333,0 c -0.68948,2.89606 -0.71853,5.64598 -2.54988,8.20209 -3.76125,5.24981 -11.59855,6.0672 -17.02929,3.175 v -0.26459 c 2.20894,0.51104 4.29916,1.54014 6.61459,1.54014 7.14972,0 12.15184,-5.76854 12.17083,-12.65264 h 0.79375 m -116.152086,0.26459 2.645833,10.58333 1.852083,-2.11667 h 0.264584 c 1.208841,2.1221 2.083148,3.80495 4.497917,2.38125 l -2.38125,-3.96875 2.38125,-0.79375 c -1.238929,-2.42478 -6.674728,-5.32483 -9.260417,-6.08541 m 20.6375,0 h 0.264584 l 1.058333,4.23333 c -1.696844,-1.00513 -2.138875,-2.41574 -1.322917,-4.23333 m 64.293756,3.175 h 0.26458 l -0.52917,-2.11667 0.79375,-0.26458 0.52917,1.32291 h 0.26458 l -0.52916,-1.5875 c -1.47054,0.52151 -1.37937,1.35422 -0.79375,2.64584 m -33.072921,-2.38123 v 0.26458 l 4.497912,0.26458 v -0.52916 h -4.497912 m 11.641671,0.26458 v 0.26458 l 2.11666,-0.26458 h -2.11666 m -31.750005,1.5875 h 0.264583 l 0.529167,-1.32292 h 0.264583 l -0.529166,1.5875 c 2.186151,-0.42147 -0.103454,-2.93179 -0.529167,-0.26458 m -30.427085,-1.32292 6.614584,4.23334 -2.38125,0.79375 2.910417,3.96875 -1.058334,0.26458 -2.38125,-3.43958 -2.116667,1.5875 1.322917,-1.85209 -0.79375,0.26459 0.79375,-1.32292 -1.322917,1.5875 h -0.264583 l 1.058333,-1.5875 -1.322916,0.79375 0.264583,-2.38125 -0.79375,0.52917 0.529167,-1.05834 -0.529167,0.26459 0.264583,-0.79375 -0.529166,0.26458 0.264583,-0.79375 -0.529167,-1.32292 m 23.547918,0.26459 -0.264583,0.26458 0.264583,-0.26458 m 9.789584,0.26458 -0.79375,2.11667 c 0.782466,-0.51903 1.107603,-1.2101 0.79375,-2.11667 m 68.527088,0 -0.26459,0.26458 0.26459,-0.26458 m -78.140282,0.44097 -0.0882,0.17639 0.0882,-0.17639 m 57.238192,-0.17639 c 0.33907,1.06803 0.79743,2.03872 1.85209,1.05834 l -1.05834,0.26458 -0.79375,-1.32292 m 0.97014,0.0882 0.17639,0.0882 -0.17639,-0.0882 m 22.57778,0.17639 -0.26458,0.26458 0.26458,-0.26458 m -94.720836,0.26458 -0.264583,0.26458 0.264583,-0.26458 m 19.050001,0 -0.264584,0.26458 0.264584,-0.26458 m 25.399996,0 v 0.26458 h 0.79375 l -0.79375,-0.26458 m 53.445839,0 c 0.56469,2.72865 0.33588,5.64988 -0.79375,8.20208 h -0.26458 l 1.03343,-4.7625 0.0249,-3.43958 m -97.366669,0.26458 -0.264584,0.26459 0.264584,-0.26459 m 24.606251,0 -0.529167,1.85209 h 0.264583 l 0.79375,-1.32292 -0.529166,1.5875 1.058333,-1.5875 -1.058333,-0.52917 m 44.185418,0.26459 0.52917,1.85208 c 1.53979,-0.51112 1.07544,-2.1219 -0.52917,-1.85208 m -68.262503,0 -0.264583,0.26458 0.264583,-0.26458 m 11.377084,0 -0.264583,0.26458 0.264583,-0.26458 m 57.943749,0 0.26459,1.5875 -1.05834,-1.32292 0.79375,-0.26458 m 10.05417,0 -0.26458,0.26458 0.26458,-0.26458 m 2.64583,0 -0.79375,1.85208 h -0.26458 l 1.05833,-1.85208 m 13.75834,0 c 0.48075,2.01925 0.63638,6.61016 -1.3956,7.93403 -1.77786,1.15831 -4.92265,0.49086 -6.80649,0.003 v -0.26459 c 2.15962,-0.73537 4.4421,-1.83633 5.82084,-3.70416 -3.55815,-0.28317 -6.76226,-1.39199 -10.31875,-0.26459 1.49875,-1.78972 3.02217,-0.95714 5.02708,-1.17449 2.88607,-0.31288 5.12047,-1.18667 7.67292,-2.52967 m -105.568756,0.26458 0.264583,0.26458 -0.264583,-0.26458 m 10.31875,0 -0.264583,0.26458 0.264583,-0.26458 m 10.054167,0.26458 0.79375,1.85209 c -0.668604,-0.55587 -1.068446,-0.9811 -0.79375,-1.85209 m 1.058334,0 -0.264584,0.26459 0.264584,-0.26459 m -21.166668,0.26459 0.264583,0.26458 -0.264583,-0.26458 m 23.812501,0 -0.264583,0.26458 0.264583,-0.26458 m 11.641667,0 -0.529167,2.11666 h 0.264584 l 0.264583,-2.11666 m 40.745835,0 1.05833,2.11666 -1.05833,-2.11666 m 12.34722,0.17638 -0.0882,0.1764 0.0882,-0.1764 m -67.115972,0.0882 0.529167,1.05833 h -0.264584 l -0.264583,-1.05833 m -21.166668,0.26458 -0.529166,1.05834 0.79375,-0.52917 -0.529167,1.05833 1.058333,-0.79375 -0.79375,-0.79375 m 74.34792,0.26459 v 0.26458 l 1.32292,1.32292 -1.32292,-1.5875 m -71.790281,0.35278 0.17639,0.0882 -0.17639,-0.0882 m 0.617362,-0.0882 v 0.26458 h 0.79375 l -0.79375,-0.26458 m 33.337501,0.26458 v 1.5875 h 0.264583 l -0.264583,-1.5875 m -35.718752,0.26459 0.264584,0.26458 -0.264584,-0.26458 m 2.557639,0.0882 0.17639,0.0882 -0.17639,-0.0882 m 15.963195,1.23472 -6.085416,-1.32291 c 2.169489,0.25622 4.528773,-0.59155 6.085416,1.32291 m -16.933333,-1.05833 0.264583,0.26458 -0.264583,-0.26458 m -1.058334,0.52917 v 0.52916 h 0.529167 l -0.529167,-0.52916 m -0.79375,1.05833 -0.529167,0.52917 0.529167,-0.52917 m 2.116667,0 0.264583,0.26458 -0.264583,-0.26458 m 82.550006,0 -0.26459,2.11667 -1.05833,-0.52917 0.79375,-1.5875 h 0.52917 m -36.777088,0.26458 v 0.26459 c -2.98429,1.01223 -5.730335,1.71331 -8.466667,3.38957 -4.613906,2.82642 -9.479339,7.11733 -15.08125,7.67781 -2.71246,0.27139 -8.844931,0.0223 -9.260417,-3.65905 h -0.79375 l 0.264583,-0.52917 c -1.301576,-0.86004 -1.523676,-2.76942 -1.5875,-4.23333 1.099448,2.0227 1.461995,4.02769 3.251558,5.69712 3.525705,3.28902 8.304096,2.83907 12.358859,0.9981 6.630345,-3.01033 11.810782,-8.59518 19.314584,-9.60564 m -13.758334,0.52917 1.058334,1.32292 -1.058334,-1.32292 m 69.320832,5.55625 -0.52916,0.52917 h -0.79375 l 0.26458,0.52916 -2.38125,1.32292 c -0.87306,1.42235 -2.94967,1.85595 -4.49792,2.20874 -4.81054,1.09614 -9.76486,-0.38095 -14.02291,-2.64277 -1.70498,-0.90566 -3.56464,-2.51947 -5.55625,-2.47639 l -1.85209,-1.33761 -5.82083,-2.4621 -2.38125,-0.16904 h -1.05833 l -0.52917,-0.26458 h -1.32292 v -0.52917 l -1.5875,0.52917 v -0.26458 h 0.79375 c 1.43828,-1.64596 6.73859,0.34161 8.46667,1.00832 6.76159,2.60864 14.65368,9.24632 22.225,8.44012 3.01612,-0.32116 5.75709,-1.19244 8.11593,-3.17255 0.65835,-0.55266 1.65021,-2.0954 2.4674,-1.24881 m -33.69028,-5.37986 -0.0882,0.17639 0.0882,-0.17639 m 15.61042,0 -0.0882,0.17639 0.0882,-0.17639 m -37.218054,0.17639 c 0.20463,0 0.04239,0.13172 -0.0882,0.0882 l 0.0882,-0.0882 m 35.895134,0 0.1764,0.0882 -0.1764,-0.0882 m -18.9618,1.23472 c -0.78753,2.07717 -3.01328,5.70366 -5.0281,6.73157 -5.34912,2.72895 -13.415995,0.15156 -13.492734,-6.73157 h -0.264584 l -0.264583,0.79375 -0.79375,-0.79375 c 2.043819,-0.76542 4.432498,-1.03497 6.350002,0.1229 1.09009,0.65825 2.420499,2.33754 3.704169,2.4768 1.28184,0.13904 2.56701,-1.59829 3.70416,-2.07299 1.87591,-0.78306 4.10194,-0.52671 6.08542,-0.52671 m 10.84792,-0.79375 -0.52917,0.52917 0.52917,-0.52917 m -2.38125,0.26458 -0.26459,0.52917 0.26459,-0.52917 m 9.78958,0.26459 -2.11667,1.5875 2.11667,-1.5875 m -79.375003,0.26458 0.264584,0.26458 -0.264584,-0.26458 m 32.014585,0.52917 0.264583,0.52916 -0.264583,-0.52916 m 11.975053,0.35604 c -0.787242,0.29969 -0.524468,1.97772 0.360935,1.62915 0.78285,-0.3082 0.538081,-1.97139 -0.360935,-1.62915 m 16.070785,-0.35604 -0.26459,0.79375 0.26459,-0.79375 m -21.166671,0.26458 1.852083,1.85208 -2.116667,-1.5875 0.264584,-0.26458 m 5.291667,0 0.264583,1.5875 h -0.79375 l 0.529167,-1.5875 m 14.022914,2.38125 c 1.08987,-0.60302 1.02712,-1.32128 0.52917,-2.38125 -1.219,0.4904 -1.03692,1.32138 -0.52917,2.38125 m 4.49792,-2.38125 -1.32292,1.32292 1.32292,-1.32292 m 25.13542,0.0882 0.0882,0.0882 c -0.13057,0.0435 -0.29282,-0.0882 -0.0882,-0.0882 m 1.05833,-0.0882 -0.26458,0.26458 0.26458,-0.26458 m -65.087502,1.32292 v 0.26458 c -3.717901,-0.0308 -6.520185,0.22423 -10.054167,1.5875 v 0.52917 l 8.202084,3.175 v 0.26458 c -5.209954,0.97069 -11.361145,-0.6356 -11.906251,-6.87917 l 13.758334,1.05834 m 16.668751,-1.05834 1.058333,1.32292 -1.058333,-1.32292 m 18.256251,0 v 1.5875 l -0.52917,-1.5875 h 0.52917 m 5.02708,0 -0.26458,0.26459 0.26458,-0.26459 m 33.86667,2.64584 c -3.11304,4.32519 -9.05701,4.40943 -13.75833,3.43958 v -0.26458 l 5.02708,-2.91042 c -3.37667,-1.25898 -6.23064,-1.74031 -9.78958,-1.5875 1.94524,-1.67305 3.78634,-1.00722 6.08541,-0.64532 4.22644,0.66526 8.0828,2.27571 12.43542,1.96824 m -51.858334,-2.11667 -0.264584,2.11667 h 0.264584 l 0.529166,-2.11667 h -0.529166 m 20.108334,0 -0.79375,1.05833 0.79375,-1.05833 m 7.40833,0.0882 0.0882,0.0882 c -0.13057,0.0435 -0.29283,-0.0882 -0.0882,-0.0882 m -17.19791,0.17638 0.79375,1.85209 h 0.26458 l -1.05833,-1.85209 m 12.43541,0.52917 c -1.05672,2.21446 -2.9295,2.98206 -5.29166,3.175 1.23075,-1.18852 3.55144,-3.74393 5.29166,-3.175 m 0.79375,-0.52917 -0.26458,0.26459 0.26458,-0.26459 m -29.897915,3.43959 v 0.26458 c -1.980463,-0.17291 -3.803579,-0.81796 -4.7625,-2.64583 1.902295,-0.77205 3.210964,1.4844 4.7625,2.38125 m 2.381251,-2.64584 0.529166,0.79375 -0.529166,-0.79375 m 5.820835,0 -0.52917,2.11667 h 0.26458 l 0.79375,-2.11667 h -0.52916 m 6.879169,0 0.79375,2.11667 h 0.26458 l -1.05833,-2.11667 m 6.61458,0 -0.52917,0.52917 0.52917,-0.52917 m 2.91042,0 -0.52917,0.52917 0.52917,-0.52917 m -25.400005,0.52917 1.322917,1.5875 -1.322917,-1.5875 m 11.112505,2.38125 c 1.22998,-3.48516 -2.632489,-1.01668 0,0 m 3.24563,-2.07012 c -0.86664,0.45186 -0.32883,2.26909 0.61614,1.75899 0.82263,-0.44406 0.34503,-2.26014 -0.61614,-1.75899 m 10.24812,-0.31113 -0.79375,0.79375 0.79375,-0.79375 m -13.75834,0.26458 c 0.18783,0.80899 0.17704,1.12936 -0.529169,1.5875 l 0.529169,-1.5875 m 3.96875,0 v 1.85209 h -0.26458 l 0.26458,-1.85209 m -2.38125,0.26459 0.26459,2.11666 h 0.26458 l -0.52917,-2.11666 m 11.1125,0.26458 -1.32291,1.32292 1.32291,-1.32292 m 1.32292,0 -0.26458,0.26458 0.26458,-0.26458 m -23.018751,0.79375 0.264583,0.52917 -0.264583,-0.52917 m 21.431251,0.26458 -0.26458,0.26459 0.26458,-0.26459 m -20.637501,0.26459 -0.264584,0.26458 0.264584,-0.26458 m 19.314581,0.26458 -0.79375,0.52917 v -0.26459 l 0.79375,-0.26458 m 14.55209,0.79375 -0.26459,0.26458 0.26459,-0.26458 m -23.28334,2.64583 -0.26458,0.26459 0.26458,-0.26459 m -12.699998,0.26459 -0.264583,0.26458 0.264583,-0.26458 m 0.529167,0.52916 -0.264584,0.26459 0.264584,-0.26459 m 21.166671,4.7625 -0.26459,0.26459 0.26459,-0.26459 m 1.76388,2.82222 -0.0882,0.1764 z"
       id="path1" /></g></svg>
